<svg width="31" height="31" viewBox="0 0 31 31" fill="none" xmlns="http://www.w3.org/2000/svg">
<path d="M0.484375 15.5C0.484375 7.20508 7.20508 0.484375 15.5 0.484375C23.7949 0.484375 30.5156 7.20508 30.5156 15.5C30.5156 23.7949 23.7949 30.5156 15.5 30.5156C7.20508 30.5156 0.484375 23.7949 0.484375 15.5ZM15.5 28.5781C22.6869 28.5781 28.5781 22.7596 28.5781 15.5C28.5781 8.31309 22.7596 2.42188 15.5 2.42188C8.31309 2.42188 2.42188 8.24043 2.42188 15.5C2.42188 22.6869 8.24043 28.5781 15.5 28.5781ZM16.2568 22.9775L23.2258 16.0146C23.5104 15.7301 23.5104 15.2699 23.2258 14.9854L16.2568 8.02246C15.9723 7.73789 15.5121 7.73789 15.2275 8.02246L14.8098 8.44023C14.5252 8.7248 14.5252 9.19707 14.8219 9.47559L19.9986 14.4707H8.47656C8.07695 14.4707 7.75 14.7977 7.75 15.1973V15.8027C7.75 16.2023 8.07695 16.5293 8.47656 16.5293H19.9986L14.8158 21.5244C14.5252 21.809 14.5191 22.2752 14.8037 22.5598L15.2215 22.9775C15.5121 23.2621 15.9723 23.2621 16.2568 22.9775Z" fill="white"/>
</svg>
