<svg width="66" height="66" viewBox="0 0 66 66" fill="none" xmlns="http://www.w3.org/2000/svg">
<path d="M47.5876 22.5289C48.5946 23.536 48.5946 25.1684 47.5876 26.175L30.292 43.4711C29.2849 44.4777 27.6529 44.4777 26.6458 43.4711L18.4124 35.2372C17.4054 34.2307 17.4054 32.5982 18.4124 31.5916C19.419 30.5845 21.0515 30.5845 22.0581 31.5916L28.4686 38.0022L43.9414 22.5289C44.9485 21.5223 46.581 21.5223 47.5876 22.5289ZM66 33C66 51.2407 51.2382 66 33 66C14.7593 66 0 51.2382 0 33C0 14.7593 14.7618 0 33 0C51.2407 0 66 14.7618 66 33ZM60.8438 33C60.8438 17.6093 48.3887 5.15625 33 5.15625C17.6093 5.15625 5.15625 17.6113 5.15625 33C5.15625 48.3907 17.6113 60.8438 33 60.8438C48.3907 60.8438 60.8438 48.3887 60.8438 33Z" fill="#56994C"/>
</svg>
