<svg width="40" height="40" viewBox="0 0 40 40" fill="none" xmlns="http://www.w3.org/2000/svg">
<rect width="40" height="40" rx="20" fill="#2B83FF"/>
<g clip-path="url(#clip0_7053_4)">
<path d="M20 12C16.692 12 14 14.7107 14 18.0433C14 22.7787 19.436 27.668 19.6673 27.8733C19.7627 27.958 19.8813 28 20 28C20.1187 28 20.2373 27.958 20.3327 27.874C20.564 27.668 26 22.7787 26 18.0433C26 14.7107 23.308 12 20 12ZM20 21.3333C18.162 21.3333 16.6667 19.838 16.6667 18C16.6667 16.162 18.162 14.6667 20 14.6667C21.838 14.6667 23.3333 16.162 23.3333 18C23.3333 19.838 21.838 21.3333 20 21.3333Z" fill="white"/>
</g>
<defs>
<clipPath id="clip0_7053_4">
<rect width="16" height="16" fill="white" transform="translate(12 12)"/>
</clipPath>
</defs>
</svg>
