<svg width="175" height="44" viewBox="0 0 175 44" fill="none" xmlns="http://www.w3.org/2000/svg">
<path d="M0 19.3622C0 14.9749 0.488672 11.494 1.46601 8.91965C2.47956 6.34528 4.19896 4.49608 6.62422 3.37207C9.08567 2.24804 12.5064 1.68603 16.8863 1.68603C20.1803 1.68603 22.9133 1.99423 25.0851 2.61063C27.257 3.22703 28.9764 4.22414 30.2433 5.60198C31.5103 6.97981 32.3971 8.81088 32.9039 11.0952C33.4469 13.3432 33.7183 16.0989 33.7183 19.3622C33.7183 22.698 33.4469 25.508 32.9039 27.7923C32.3609 30.0404 31.456 31.8533 30.189 33.2312C28.9221 34.609 27.1665 35.6061 24.9223 36.2225V36.4944C26.0082 37.691 26.9855 38.9238 27.8543 40.1928C28.7592 41.4619 29.5375 42.6766 30.189 43.8368V44H20.307L16.4519 37.0927C12.1806 37.0564 8.85039 36.4763 6.46133 35.3523C4.07226 34.192 2.38906 32.3247 1.41172 29.7503C0.470573 27.1759 0 23.7132 0 19.3622ZM16.8863 29.4784C19.203 29.4784 20.9405 29.1883 22.0988 28.6082C23.2572 28.028 24.0354 27.0128 24.4336 25.5624C24.8318 24.0758 25.0308 22.0091 25.0308 19.3622C25.0308 16.7515 24.8318 14.7211 24.4336 13.2707C24.0354 11.8204 23.2572 10.8051 22.0988 10.225C20.9405 9.60857 19.203 9.30037 16.8863 9.30037C14.6059 9.30037 12.8684 9.60857 11.6738 10.225C10.5155 10.8051 9.71914 11.8204 9.28476 13.2707C8.88658 14.7211 8.6875 16.7515 8.6875 19.3622C8.6875 22.0091 8.88658 24.0758 9.28476 25.5624C9.71914 27.0128 10.5155 28.028 11.6738 28.6082C12.8684 29.1883 14.6059 29.4784 16.8863 29.4784Z" fill="#56994C"/>
<path d="M47.8449 37.0927C44.5146 37.0927 42.1437 36.2044 40.732 34.4277C39.3202 32.651 38.6144 30.1129 38.6144 26.8133V10.1162H47.3019L47.3562 24.6922C47.3562 26.3239 47.6458 27.4841 48.2249 28.1731C48.8041 28.8257 49.9805 29.152 51.7542 29.152C53.4555 29.152 54.5958 28.862 55.1749 28.2818C55.7903 27.6654 56.1161 26.6321 56.1523 25.1817V10.1162H64.8398V36.6032H56.5866L56.1523 33.6119H55.9894C55.5188 34.6634 54.5596 35.5154 53.1116 36.1681C51.6637 36.7845 49.9081 37.0927 47.8449 37.0927Z" fill="#56994C"/>
<path d="M104.193 9.84425C106.871 9.84425 108.989 10.7326 110.545 12.5093C112.138 14.2859 112.934 17.3679 112.934 21.7553V36.6032H104.247L104.193 22.843C104.193 21.0663 103.921 19.7792 103.378 18.9815C102.871 18.1838 101.858 17.7849 100.338 17.7849C98.8173 17.7849 97.7856 18.1838 97.2427 18.9815C96.7359 19.7792 96.4825 21.0663 96.4825 22.843V36.6032H87.795L87.7407 22.843C87.7407 21.0663 87.4692 19.7792 86.9263 18.9815C86.4195 18.1838 85.406 17.7849 83.8857 17.7849C82.3653 17.7849 81.3337 18.1838 80.7907 18.9815C80.284 19.7792 80.0306 21.0663 80.0306 22.843V36.6032H71.3431V10.1162H79.5962L80.0306 14.9567H80.1935C80.664 13.3613 81.4785 12.1104 82.6368 11.204C83.8314 10.2975 85.5146 9.84425 87.6864 9.84425C89.8583 9.84425 91.5596 10.2975 92.7903 11.204C94.0573 12.1104 94.8717 13.3613 95.2337 14.9567H95.3966C95.8672 13.3251 96.7721 12.0742 98.1114 11.204C99.4869 10.2975 101.514 9.84425 104.193 9.84425Z" fill="#56994C"/>
<path d="M145.729 22.1904C145.729 27.0853 144.733 30.8018 142.742 33.3399C140.751 35.8418 137.367 37.0927 132.589 37.0927C129.91 37.0927 127.412 37.0021 125.096 36.8208C122.815 36.6032 120.806 36.3494 119.069 36.0593L118.906 35.9506V0H127.593V14.1953H127.811C128.317 12.89 129.15 11.8385 130.308 11.0408C131.503 10.2431 133.186 9.84425 135.358 9.84425C142.272 9.84425 145.729 13.9596 145.729 22.1904ZM127.593 23.115V29.4784C128.462 29.6234 129.476 29.6959 130.634 29.6959C132.335 29.6959 133.656 29.5509 134.598 29.2608C135.575 28.9345 136.263 28.3181 136.661 27.4116C137.059 26.5051 137.258 25.1998 137.258 23.4957C137.258 21.3564 136.951 19.7792 136.335 18.7639C135.72 17.7487 134.453 17.241 132.534 17.241C131.086 17.241 129.892 17.6943 128.951 18.6007C128.046 19.4709 127.593 20.9757 127.593 23.115Z" fill="#56994C"/>
<path d="M160.394 9.84425C163.869 9.84425 166.674 10.2068 168.81 10.932C170.946 11.6572 172.502 12.9988 173.48 14.9567C174.493 16.8784 175 19.6704 175 23.3325V36.6032H167.127L166.855 34.1014H166.693C166.005 35.0078 164.937 35.733 163.489 36.2769C162.041 36.8208 160.159 37.0927 157.842 37.0927C151.58 37.0927 148.449 34.1557 148.449 28.2818C148.449 25.78 149.263 23.822 150.892 22.4079C152.557 20.9576 155.164 20.2324 158.711 20.2324H166.747C166.493 18.7095 165.842 17.6943 164.792 17.1866C163.742 16.6428 161.951 16.3708 159.417 16.3708C157.824 16.3708 156.249 16.4977 154.693 16.7515C153.173 16.9691 151.833 17.2229 150.675 17.513L150.512 17.4042L150.566 11.0952C151.29 10.8776 152.213 10.6782 153.336 10.4969C154.458 10.2794 155.634 10.1162 156.865 10.0074C158.132 9.89864 159.308 9.84425 160.394 9.84425ZM160.068 30.6749C162.313 30.6749 163.996 30.403 165.118 29.8591C166.24 29.2789 166.819 28.3725 166.855 27.1397V25.78H160.72C159.127 25.78 158.005 26.0157 157.354 26.487C156.738 26.9221 156.43 27.5204 156.43 28.2818C156.43 29.1883 156.756 29.8228 157.408 30.1854C158.059 30.5117 158.946 30.6749 160.068 30.6749Z" fill="#56994C"/>
</svg>
