<svg width="281" height="33" viewBox="0 0 281 33" fill="none" xmlns="http://www.w3.org/2000/svg">
<path d="M3.696 28.934C3.696 31.076 4.62 32 6.762 32H37.8C39.942 32 40.866 31.076 40.866 28.934V9.194C40.866 8.564 41.16 8.27 41.79 8.27H43.596V1.97H36.414C34.272 1.97 33.348 2.894 33.348 5.036V24.776C33.348 25.406 33.054 25.7 32.424 25.7H26.04V1.97H18.522V25.7H12.138C11.508 25.7 11.214 25.406 11.214 24.776V5.036C11.214 2.894 10.29 1.97 8.148 1.97H0.966V8.27H2.772C3.402 8.27 3.696 8.564 3.696 9.194V28.934ZM45.2629 21.164C45.2629 24.23 46.3129 26.918 48.4549 29.144C50.5969 31.37 53.4949 32.504 57.1489 32.504C60.5089 32.504 64.0789 31.328 66.3889 29.354L63.7009 24.272C61.5169 25.742 59.5429 26.456 57.7369 26.456C55.2589 26.456 53.2009 25.112 52.6969 22.592H66.3469C66.4729 21.584 66.5149 20.828 66.5149 20.324C66.5149 17.258 65.6329 14.738 63.8269 12.806C62.0629 10.832 59.6269 9.866 56.5189 9.866C53.1169 9.866 50.3869 10.958 48.3289 13.1C46.2709 15.242 45.2629 17.93 45.2629 21.164ZM52.8649 18.434C53.3269 16.292 54.5029 15.2 56.3509 15.2C58.1569 15.2 59.3329 16.586 59.3329 18.434H52.8649ZM80.0668 32.504C83.4688 32.504 86.2828 31.58 88.4248 29.732C90.6088 27.842 91.7008 25.322 91.7008 22.088C91.7008 19.19 90.8188 16.838 89.0548 14.99C87.3328 13.142 85.0228 12.218 82.1668 12.218C79.7728 12.218 77.7568 12.974 76.0348 14.486H75.9508C75.9508 13.184 76.4128 12.26 77.3788 11.588C78.3868 10.874 78.8488 10.664 80.0668 10.202L83.9308 8.732L84.5188 8.522C86.4088 7.808 87.7108 7.136 88.5088 6.464C89.3068 5.792 89.6848 4.658 89.6848 3.062V0.499997H82.7548V1.004C82.7548 1.844 82.2928 2.222 80.3188 3.062L77.0008 4.532C74.1868 5.75 72.1288 7.43 70.8268 9.488C69.5248 11.546 68.8528 14.528 68.8528 18.35C68.8528 27.8 72.5908 32.504 80.0668 32.504ZM77.3368 19.106C78.8908 17.594 81.5788 17.594 83.1328 19.106C83.9308 19.862 84.3088 20.912 84.3088 22.214C84.3088 23.516 83.9308 24.566 83.1328 25.364C81.5788 26.918 78.8908 26.918 77.3368 25.364C76.5388 24.566 76.1608 23.516 76.1608 22.214C76.1608 20.912 76.5388 19.862 77.3368 19.106ZM93.7844 21.164C93.7844 24.23 94.8344 26.918 96.9764 29.144C99.1184 31.37 102.016 32.504 105.67 32.504C109.03 32.504 112.6 31.328 114.91 29.354L112.222 24.272C110.038 25.742 108.064 26.456 106.258 26.456C103.78 26.456 101.722 25.112 101.218 22.592H114.868C114.994 21.584 115.036 20.828 115.036 20.324C115.036 17.258 114.154 14.738 112.348 12.806C110.584 10.832 108.148 9.866 105.04 9.866C101.638 9.866 98.9084 10.958 96.8504 13.1C94.7924 15.242 93.7844 17.93 93.7844 21.164ZM101.386 18.434C101.848 16.292 103.024 15.2 104.872 15.2C106.678 15.2 107.854 16.586 107.854 18.434H101.386ZM126.698 32L132.662 22.298C133.376 21.08 133.754 20.366 133.838 20.156H133.922C133.88 20.702 133.838 21.458 133.838 22.34V28.934C133.838 31.076 134.762 32 136.904 32H143.078V25.91H141.482C140.852 25.91 140.558 25.616 140.558 24.986V10.37H133.292L127.328 20.114C126.698 21.122 126.32 21.836 126.152 22.256H126.068C126.11 21.542 126.152 20.828 126.152 20.114V13.436C126.152 11.294 125.228 10.37 123.086 10.37H116.912V16.46H118.508C119.138 16.46 119.432 16.754 119.432 17.384V32H126.698ZM130.016 8.858C132.242 8.858 134.09 8.27 135.644 7.136C137.198 6.002 137.954 4.406 137.954 2.432V1.97H132.62V2.474C132.62 4.112 131.36 4.952 130.016 4.952C128.63 4.952 127.412 4.112 127.412 2.474V1.97H122.036V2.432C122.036 4.406 122.792 6.002 124.346 7.136C125.9 8.27 127.79 8.858 130.016 8.858ZM167.73 21.374C170.082 21.374 172.308 20.828 174.366 19.736H174.45L174.366 21.122V32H181.884V1.97H174.366V13.268C173.232 14.234 171.762 14.696 169.998 14.696C166.974 14.696 165.462 13.226 165.462 10.244V5.036C165.462 2.894 164.58 1.97 162.396 1.97H155.214V8.27H157.02C157.65 8.27 157.944 8.564 157.944 9.194V11.966C157.944 17.888 161.346 21.374 167.73 21.374ZM185.167 21.164C185.167 24.23 186.217 26.918 188.359 29.144C190.501 31.37 193.399 32.504 197.053 32.504C200.413 32.504 203.983 31.328 206.293 29.354L203.605 24.272C201.421 25.742 199.447 26.456 197.641 26.456C195.163 26.456 193.105 25.112 192.601 22.592H206.251C206.377 21.584 206.419 20.828 206.419 20.324C206.419 17.258 205.537 14.738 203.731 12.806C201.967 10.832 199.531 9.866 196.423 9.866C193.021 9.866 190.291 10.958 188.233 13.1C186.175 15.242 185.167 17.93 185.167 21.164ZM192.769 18.434C193.231 16.292 194.407 15.2 196.255 15.2C198.061 15.2 199.237 16.586 199.237 18.434H192.769ZM218.081 32V24.02H224.675V28.934C224.675 31.076 225.599 32 227.741 32H234.461V25.91H232.865C232.235 25.91 231.941 25.616 231.941 24.986V10.37H224.675V18.14H218.081V13.436C218.081 11.294 217.157 10.37 215.015 10.37H208.295V16.46H209.891C210.521 16.46 210.815 16.754 210.815 17.384V32H218.081ZM236.191 21.164C236.191 24.314 237.283 26.96 239.425 29.186C241.609 31.412 244.549 32.504 248.245 32.504C250.555 32.504 252.907 31.748 254.251 31.034C254.965 30.656 255.595 30.236 256.225 29.774C257.443 28.808 257.653 28.514 257.821 28.304L254.923 23.432L254.125 24.146C253.075 25.112 250.807 26.246 248.959 26.246C245.935 26.246 243.499 24.482 243.499 21.08C243.499 18.098 245.431 15.872 248.413 15.872C249.547 15.872 250.093 16.166 250.093 16.796V17.93H256.393V14.948C256.393 11.042 251.437 9.866 248.413 9.866C244.549 9.866 241.525 11 239.383 13.226C237.241 15.452 236.191 18.098 236.191 21.164ZM258.872 21.164C258.872 24.23 259.922 26.918 262.064 29.144C264.206 31.37 267.104 32.504 270.758 32.504C274.118 32.504 277.688 31.328 279.998 29.354L277.31 24.272C275.126 25.742 273.152 26.456 271.346 26.456C268.868 26.456 266.81 25.112 266.306 22.592H279.956C280.082 21.584 280.124 20.828 280.124 20.324C280.124 17.258 279.242 14.738 277.436 12.806C275.672 10.832 273.236 9.866 270.128 9.866C266.726 9.866 263.996 10.958 261.938 13.1C259.88 15.242 258.872 17.93 258.872 21.164ZM266.474 18.434C266.936 16.292 268.112 15.2 269.96 15.2C271.766 15.2 272.942 16.586 272.942 18.434H266.474Z" fill="white"/>
</svg>
