<svg width="40" height="40" viewBox="0 0 40 40" fill="none" xmlns="http://www.w3.org/2000/svg">
<rect width="40" height="40" rx="20" fill="#2B83FF"/>
<path d="M27.9924 24.624C28.0263 24.8837 27.9471 25.1096 27.7552 25.3015L25.5025 27.5373C25.4008 27.6502 25.2682 27.7462 25.1044 27.8252C24.9407 27.9043 24.7798 27.9551 24.6218 27.9776C24.6105 27.9776 24.5765 27.9805 24.5201 27.9862C24.4637 27.9918 24.3903 27.9947 24.2999 27.9947C24.0853 27.9947 23.7381 27.958 23.2582 27.8846C22.7783 27.8111 22.1911 27.6304 21.4967 27.3425C20.8021 27.0546 20.0145 26.6226 19.1338 26.0468C18.253 25.471 17.3158 24.6805 16.3221 23.6755C15.5316 22.8963 14.8767 22.151 14.3572 21.4397C13.8378 20.7282 13.42 20.0705 13.1038 19.4663C12.7876 18.8622 12.5505 18.3146 12.3924 17.8234C12.2343 17.3321 12.127 16.9087 12.0706 16.553C12.0141 16.1973 11.9915 15.9178 12.0028 15.7146C12.0141 15.5113 12.0198 15.3984 12.0198 15.3758C12.0423 15.2177 12.0932 15.0568 12.1722 14.8931C12.2512 14.7293 12.3472 14.5967 12.4602 14.495L14.7129 12.2423C14.871 12.0842 15.0517 12.0051 15.2549 12.0051C15.4017 12.0051 15.5316 12.0475 15.6445 12.1322C15.7574 12.2169 15.8534 12.3213 15.9325 12.4455L17.7448 15.8839C17.8465 16.0646 17.8747 16.2622 17.8295 16.4768C17.7844 16.6913 17.6884 16.872 17.5416 17.0188L16.7116 17.8488C16.689 17.8713 16.6693 17.908 16.6523 17.9589C16.6354 18.0097 16.6269 18.052 16.6269 18.0859C16.6721 18.323 16.7737 18.594 16.9318 18.8989C17.0673 19.1699 17.2762 19.5002 17.5585 19.8898C17.8408 20.2794 18.2417 20.7282 18.7611 21.2363C19.2693 21.7558 19.7209 22.1595 20.1162 22.4475C20.5113 22.7353 20.8417 22.9471 21.1071 23.0826C21.3724 23.2181 21.5757 23.3 21.7168 23.3281L21.9285 23.3705C21.9511 23.3705 21.9878 23.362 22.0386 23.3451C22.0894 23.3281 22.1261 23.3084 22.1487 23.2858L23.1142 22.3034C23.3175 22.1227 23.5546 22.0324 23.8256 22.0324C24.0176 22.0324 24.17 22.0663 24.2829 22.134H24.2998L27.5688 24.065C27.806 24.2119 27.9472 24.3981 27.9924 24.624Z" fill="white"/>
</svg>
