<svg width="170" height="170" viewBox="0 0 170 170" fill="none" xmlns="http://www.w3.org/2000/svg">
<g clip-path="url(#clip0_6665_2141)">
<path d="M78.0224 69.4141C79.0012 45.9326 70.7047 6.75154 101.018 0.72883C135.754 -6.1731 158.736 37.479 150.372 66.8475C139.33 105.616 113.291 101.456 123.939 151.238C128.641 173.219 89.6342 174.548 79.2064 162.149C55.7643 134.276 57.6991 131.413 22.616 121.519C0.0342102 115.151 8.13611 79.7117 30.6976 86.863C48.3554 92.4598 77.0243 93.3559 78.0224 69.4141Z" fill="url(#paint0_linear_6665_2141)"/>
<path opacity="0.1" d="M140.374 25.4854H63.562L62.8345 24.2253C61.9437 22.6827 59.9687 22.1534 58.4261 23.0443L54.8053 25.1354C52.756 23.4377 50.4195 22.0761 47.8798 21.1304V16.9575C47.8798 15.1728 46.4342 13.7305 44.6528 13.7305H34.3323C32.5476 13.7305 31.1049 15.1728 31.1049 16.9575V21.1304C28.5652 22.0761 26.2254 23.4377 24.1761 25.1354L20.5583 23.0443C19.0124 22.1534 17.0408 22.6827 16.1499 24.2253L10.9895 33.1646C10.0957 34.7072 10.6249 36.6821 12.1705 37.573L15.7917 39.6641C15.5722 40.9647 15.4527 42.2974 15.4527 43.6624C15.4527 45.0244 15.5722 46.3602 15.7917 47.6607L12.1705 49.7519C10.6246 50.6427 10.0953 52.6143 10.9895 54.1603L16.1499 63.0962C17.0408 64.6388 19.0124 65.1681 20.5583 64.2776L24.1761 62.1894C26.2254 63.8871 28.5652 65.2458 31.1049 66.1911V70.367C31.1049 72.1484 32.5476 73.5944 34.3323 73.5944H43.1587V81.5628H32.631C30.6826 81.5628 29.1031 83.1423 29.1031 85.0906V106.258C29.1031 108.206 30.6826 109.785 32.631 109.785H43.1583V124.008H32.5041C29.817 124.008 27.6389 126.158 27.6389 128.81V133.06C27.6389 140.131 33.4478 145.864 40.613 145.864H43.1583V160.492C43.1583 163.241 45.4161 165.472 48.2052 165.472H140.374C143.16 165.472 145.421 163.241 145.421 160.492V30.4658C145.421 27.717 143.16 25.4854 140.374 25.4854ZM39.4921 53.2644C34.1722 53.2644 29.8615 48.9537 29.8615 43.6339C29.8615 38.3167 34.1726 34.006 39.4921 34.006C40.7903 34.006 42.0278 34.2646 43.1583 34.7304V52.5399C42.0281 53.0061 40.7903 53.2644 39.4921 53.2644Z" fill="#2B6322"/>
<path d="M145.426 22.4985V152.525C145.426 155.274 143.165 157.506 140.379 157.506H48.2109C45.4219 157.506 43.1641 155.274 43.1641 152.525V22.4985C43.1641 19.7493 45.4219 17.5181 48.2109 17.5181H140.379C143.165 17.5181 145.426 19.7493 145.426 22.4985Z" fill="#56994C"/>
<path d="M134.998 28.8071V110.171L133.334 111.832H55.2539L53.5938 110.171V28.8071C53.5938 27.8907 54.3475 27.147 55.2738 27.147H133.314C134.244 27.147 134.998 27.8907 134.998 28.8071Z" fill="white"/>
<path d="M135 100.888V111.958H99.3828L109.48 101.86C110.103 101.238 110.947 100.888 111.828 100.888H135Z" fill="#56994C"/>
<path d="M53.5938 110.172V116.128L100.002 136.236L122.025 137.896C129.187 137.896 134.998 132.165 134.998 125.093V110.172H53.5938V110.172Z" fill="white"/>
<path d="M27.6406 120.842V125.092C27.6406 132.163 33.4495 137.896 40.6151 137.896H122.018C114.852 137.896 109.043 132.163 109.043 125.092V120.842C109.043 118.19 106.865 116.04 104.178 116.04H32.5062C29.8191 116.04 27.6406 118.19 27.6406 120.842Z" fill="white"/>
<path d="M108.127 31.3172H80.4282C78.5824 31.3172 77.0859 29.8208 77.0859 27.975V17.1657C77.0859 15.32 78.5824 13.8235 80.4282 13.8235H108.127C109.972 13.8235 111.469 15.32 111.469 17.1657V27.975C111.469 29.8208 109.972 31.3172 108.127 31.3172Z" fill="white"/>
<path d="M83.7758 26.6566C82.8468 26.6566 82.0938 25.9132 82.0938 24.9964V24.9583C82.0938 24.0415 82.8468 23.2981 83.7758 23.2981C84.7048 23.2981 85.4579 24.0415 85.4579 24.9583V24.9964C85.4579 25.9132 84.7045 26.6566 83.7758 26.6566Z" fill="#2B6322"/>
<path d="M104.479 26.6566C103.55 26.6566 102.797 25.9132 102.797 24.9964V24.9583C102.797 24.0415 103.55 23.2981 104.479 23.2981C105.408 23.2981 106.161 24.0415 106.161 24.9583V24.9964C106.161 25.9132 105.408 26.6566 104.479 26.6566Z" fill="#2B6322"/>
<path d="M110.061 78.2528L107.112 76.5495C107.288 75.49 107.385 74.4016 107.385 73.2923C107.385 72.1803 107.288 71.0946 107.112 70.0351L110.061 68.3317C111.318 67.6063 111.749 65.9972 111.024 64.7408L106.82 57.4591C106.095 56.2023 104.486 55.7713 103.229 56.4968L100.28 58.2001C98.6103 56.8172 96.7071 55.7079 94.6383 54.9376V51.5386C94.6383 50.085 93.4605 48.9099 92.0096 48.9099H83.6025C82.1489 48.9099 80.9738 50.085 80.9738 51.5386V54.9376C78.905 55.7079 76.9991 56.8172 75.3296 58.2001L72.3829 56.4968C71.1238 55.7713 69.5174 56.2023 68.792 57.4591L64.5884 64.7408C63.8603 65.9976 64.2913 67.6063 65.5507 68.3317L68.5001 70.0351C68.3215 71.0946 68.2242 72.1803 68.2242 73.2923C68.2242 74.4016 68.3215 75.49 68.5001 76.5495L65.5507 78.2528C64.2916 78.9783 63.8603 80.5847 64.5884 81.8438L68.792 89.1229C69.5174 90.3796 71.1238 90.8106 72.3829 90.0851L75.3296 88.3841C76.9991 89.767 78.905 90.8737 80.9738 91.644V95.0457C80.9738 96.4966 82.1489 97.6743 83.6025 97.6743H92.0096C93.4605 97.6743 94.6383 96.4966 94.6383 95.0457V91.644C96.7071 90.8737 98.6103 89.767 100.28 88.3841L103.229 90.0851C104.486 90.8106 106.095 90.3796 106.82 89.1229L111.024 81.8438C111.749 80.5847 111.318 78.9783 110.061 78.2528ZM87.8057 81.1136C83.4724 81.1136 79.9608 77.6021 79.9608 73.2687C79.9608 68.9377 83.4724 65.4258 87.8057 65.4258C92.1367 65.4258 95.6506 68.9374 95.6506 73.2687C95.6506 77.6021 92.1367 81.1136 87.8057 81.1136Z" fill="#56994C"/>
<path d="M87.8035 87.4701C79.9726 87.4701 73.6016 81.0994 73.6016 73.2681C73.6016 65.4392 79.9722 59.0698 87.8035 59.0698C95.6345 59.0698 102.005 65.4392 102.005 73.2681C102.005 81.0991 95.6345 87.4701 87.8035 87.4701ZM87.8035 61.6988C81.4222 61.6988 76.2306 66.8888 76.2306 73.2681C76.2306 79.6494 81.4222 84.8411 87.8035 84.8411C94.1848 84.8411 99.3765 79.6494 99.3765 73.2681C99.3765 66.8888 94.1848 61.6988 87.8035 61.6988Z" fill="white"/>
<path d="M66.8136 41.7839L63.1928 39.6927C63.4089 38.3922 63.5285 37.0561 63.5285 35.6941C63.5285 34.3291 63.4089 32.9963 63.1928 31.6958L66.8136 29.6046C68.3562 28.7138 68.8854 26.7389 67.9946 25.1963L62.8342 16.257C61.9433 14.7144 59.9684 14.1851 58.4258 15.0759L54.805 17.1671C52.7557 15.4694 50.4192 14.1077 47.8795 13.1621V8.98882C47.8795 7.20415 46.4338 5.76147 44.6521 5.76147H34.3316C32.547 5.76147 31.1043 7.20415 31.1043 8.98882V13.1618C28.5646 14.1074 26.2247 15.4694 24.1754 17.1667L20.5583 15.0756C19.0124 14.1848 17.0408 14.714 16.1499 16.2566L10.9895 25.1959C10.0957 26.7385 10.6249 28.7135 12.1705 29.6043L15.7913 31.6954C15.5719 32.996 15.4523 34.3288 15.4523 35.6938C15.4523 37.0557 15.5719 38.3918 15.7913 39.6924L12.1705 41.7835C10.6246 42.6744 10.0953 44.646 10.9895 46.1919L16.1499 55.1279C17.0408 56.6705 19.0124 57.1997 20.5583 56.3092L24.1761 54.2211C26.2254 55.9188 28.5652 57.2774 31.1049 58.2227V62.3987C31.1049 64.18 32.5476 65.626 34.3323 65.626H44.6528C46.4342 65.626 47.8802 64.1804 47.8802 62.3987V58.2227C50.4199 57.2771 52.7564 55.9184 54.8057 54.2211L58.4265 56.3092C59.9691 57.2001 61.944 56.6705 62.8348 55.1279L67.9953 46.1919C68.8854 44.6463 68.3562 42.6744 66.8136 41.7839ZM39.4921 45.2961C34.1722 45.2961 29.8615 40.985 29.8615 35.6655C29.8615 30.3484 34.1726 26.0376 39.4921 26.0376C44.8092 26.0376 49.1226 30.3487 49.1226 35.6655C49.123 40.985 44.8092 45.2961 39.4921 45.2961Z" fill="white"/>
<path d="M39.489 53.0989C29.8754 53.0989 22.0547 45.2779 22.0547 35.6646C22.0547 26.0536 29.8757 18.2346 39.489 18.2346C49.1023 18.2346 56.9233 26.0536 56.9233 35.6646C56.9236 45.2779 49.1026 53.0989 39.489 53.0989ZM39.489 21.4616C31.655 21.4616 25.2817 27.8333 25.2817 35.6646C25.2817 43.4985 31.655 49.8719 39.489 49.8719C47.3229 49.8719 53.6963 43.4985 53.6963 35.6646C53.6963 27.833 47.3229 21.4616 39.489 21.4616Z" fill="#56994C"/>
<path d="M124.006 48.9604H110.746C109.829 48.9604 109.086 48.2174 109.086 47.3003C109.086 46.3832 109.829 45.6401 110.746 45.6401H124.006C124.923 45.6401 125.666 46.3832 125.666 47.3003C125.666 48.2174 124.923 48.9604 124.006 48.9604Z" fill="#56994C"/>
<path d="M124.006 42.605H116.723C115.806 42.605 115.062 41.8619 115.062 40.9448C115.062 40.0278 115.806 39.2847 116.723 39.2847H124.006C124.923 39.2847 125.666 40.0278 125.666 40.9448C125.666 41.8619 124.923 42.605 124.006 42.605Z" fill="#56994C"/>
<path d="M53.7964 101.817H32.6294C30.681 101.817 29.1016 100.238 29.1016 98.2896V77.1226C29.1016 75.1742 30.681 73.5947 32.6294 73.5947H53.7964C55.7447 73.5947 57.3242 75.1742 57.3242 77.1226V98.2896C57.3242 100.238 55.7447 101.817 53.7964 101.817Z" fill="white"/>
<path d="M140.368 15.8582H121.73C120.813 15.8582 120.07 16.6012 120.07 17.5183C120.07 18.4354 120.813 19.1785 121.73 19.1785H140.368C142.235 19.1785 143.754 20.668 143.754 22.4988V152.524C143.754 154.354 142.235 155.844 140.368 155.844H48.1986C46.3315 155.844 44.8125 154.354 44.8125 152.524V148.138C44.8125 147.221 44.0694 146.478 43.1523 146.478C42.2353 146.478 41.4922 147.221 41.4922 148.138V152.524C41.4922 156.185 44.5007 159.164 48.1986 159.164H140.368C144.066 159.164 147.074 156.185 147.074 152.524V22.4988C147.074 18.8368 144.066 15.8582 140.368 15.8582Z" fill="#2B6322"/>
<path d="M136.646 28.807C136.646 26.9762 135.147 25.4867 133.305 25.4867H113.121V17.1657C113.121 14.4075 110.877 12.1636 108.119 12.1636H80.4201C78.1151 12.1636 76.1747 13.7331 75.5973 15.8578H64.5185L64.2694 15.4265C63.617 14.2966 62.5628 13.4878 61.3017 13.1501C60.041 12.8114 58.7232 12.9854 57.5933 13.6378L54.9483 15.1658C53.2759 13.9028 51.4633 12.8546 49.5372 12.0364V8.98906C49.5372 6.2943 47.3445 4.10156 44.6497 4.10156H34.3292C31.6344 4.10156 29.4417 6.2943 29.4417 8.98906V12.0364C27.5132 12.8552 25.6994 13.9035 24.0279 15.1655L21.3839 13.6372C19.0508 12.2918 16.0555 13.095 14.7091 15.4268L9.55068 24.3634C8.89558 25.4937 8.72093 26.8108 9.05894 28.0729C9.39695 29.3353 10.2068 30.3901 11.338 31.0419L13.9843 32.5703C13.8555 33.6145 13.7904 34.6607 13.7904 35.694C13.7904 36.7273 13.8555 37.7739 13.9843 38.8178L11.3397 40.3454C10.2071 40.9979 9.39695 42.0517 9.05927 43.3128C8.7216 44.5739 8.89558 45.8917 9.54968 47.0223L14.7101 55.9585C16.0568 58.2901 19.0504 59.0926 21.3859 57.7475L24.0279 56.2225C25.6977 57.4822 27.5116 58.5298 29.4423 59.3489V62.3996C29.4423 65.0944 31.6351 67.2868 34.3298 67.2868H41.4961V71.9352H32.6285C29.7681 71.9352 27.4405 74.2628 27.4405 77.1232V98.2902C27.4405 101.151 29.7681 103.478 32.6285 103.478H41.4957V114.38H32.5017C28.9035 114.38 25.9763 117.279 25.9763 120.842V125.092C25.9763 133.068 32.5412 139.557 40.6105 139.557C40.6105 139.557 122.016 139.557 122.017 139.557C130.084 139.555 136.646 133.067 136.646 125.093V28.807H136.646ZM133.326 108.512H105.167L110.645 103.034C110.958 102.721 111.375 102.548 111.819 102.548H133.325V108.512H133.326ZM78.7384 17.1657C78.7384 16.2383 79.4927 15.4839 80.4201 15.4839H108.119C109.046 15.4839 109.801 16.2383 109.801 17.1657V27.9749C109.801 28.9026 109.046 29.657 108.119 29.657H80.4201C79.4927 29.657 78.7384 28.9026 78.7384 27.9749V17.1657ZM80.4201 32.9773H108.119C110.593 32.9773 112.648 31.1698 113.046 28.8067H133.326V99.2272H111.819C110.488 99.2272 109.237 99.7455 108.297 100.686L100.472 108.511H55.2452V103.267C57.4017 102.638 58.9835 100.647 58.9835 98.2895V77.1225C58.9835 74.7655 57.4017 72.7739 55.2452 72.1447V56.3928L57.5936 57.7472C58.7239 58.4 60.0407 58.5726 61.3021 58.2349C62.5631 57.8969 63.617 57.0884 64.2698 55.9585L69.4309 47.0209C70.7759 44.6871 69.9734 41.6925 67.6412 40.3461L64.9933 38.8171C65.1214 37.7695 65.1858 36.7233 65.1858 35.6943C65.1858 34.6654 65.1214 33.6191 64.9933 32.5716L67.6412 31.0426C68.544 30.5216 69.2363 29.7417 69.6527 28.8077H75.4931C75.8912 31.1698 77.9461 32.9773 80.4201 32.9773ZM75.4181 19.1781V25.4867H69.8984C69.7888 25.0999 69.6364 24.723 69.4302 24.3658L66.4356 19.1781H75.4181ZM34.3295 63.9658C33.4652 63.9658 32.7623 63.2629 32.7623 62.399V58.223C32.7623 57.5294 32.3313 56.9091 31.6812 56.6671C29.3281 55.7909 27.1583 54.5378 25.2322 52.9424C24.9274 52.6897 24.5512 52.5609 24.173 52.5609C23.8881 52.5609 23.6016 52.6342 23.3433 52.7833L19.7268 54.8708C18.9784 55.3028 18.0168 55.0455 17.5852 54.2977L12.4241 45.3604C12.2142 44.9972 12.1578 44.5752 12.266 44.1718C12.3739 43.7683 12.6336 43.4313 12.9982 43.2212L16.6193 41.13C17.2196 40.7831 17.541 40.0997 17.4261 39.4161C17.2166 38.1749 17.1104 36.9225 17.1104 35.6937C17.1104 34.4648 17.2166 33.2124 17.4261 31.9713C17.5413 31.2873 17.2196 30.6043 16.6193 30.2573L12.9968 28.1655C12.6336 27.956 12.3739 27.6183 12.266 27.2139C12.1581 26.8105 12.2139 26.3895 12.4247 26.0256L17.5852 17.0863C18.0168 16.3386 18.977 16.0809 19.7244 16.5122L23.3423 18.6037C23.9442 18.951 24.6979 18.8879 25.2322 18.4446C27.1623 16.8456 29.3321 15.5912 31.6812 14.7166C32.3313 14.4746 32.7623 13.8543 32.7623 13.1607V8.98873C32.7623 8.12445 33.4652 7.42154 34.3295 7.42154H44.65C45.5143 7.42154 46.2172 8.12445 46.2172 8.98873V13.1617C46.2172 13.8553 46.6482 14.4755 47.2983 14.7176C49.6435 15.5908 51.8123 16.8449 53.744 18.4456C54.2783 18.8886 55.032 18.9523 55.6333 18.6047L59.2538 16.5132C59.616 16.3037 60.0384 16.2486 60.4424 16.3572C60.8472 16.4654 61.1849 16.7244 61.394 17.0866L66.5545 26.0259C66.7637 26.3882 66.8191 26.8102 66.7105 27.2149C66.6023 27.6197 66.3433 27.9573 65.9807 28.1665L62.3599 30.2577C61.7609 30.6036 61.4392 31.2853 61.5524 31.9676C61.7603 33.2171 61.8655 34.4708 61.8655 35.694C61.8655 36.9172 61.7603 38.171 61.5524 39.4204C61.4389 40.1031 61.7609 40.7844 62.3599 41.1304L65.9807 43.2215H65.9811C66.7288 43.6531 66.9855 44.6137 66.5548 45.3618L61.3944 54.2981C61.1852 54.66 60.8475 54.9193 60.4428 55.0275C60.039 55.1361 59.6163 55.081 59.2534 54.8711L55.6326 52.783C55.031 52.436 54.2783 52.4998 53.744 52.9424C51.8159 54.5394 49.6474 55.7922 47.2983 56.6671C46.6482 56.9091 46.2172 57.5294 46.2172 58.223V62.399C46.2172 63.2629 45.5143 63.9658 44.65 63.9658H34.3295ZM51.9248 58.1825V71.9346H44.8161V67.2778C47.4338 67.1892 49.5375 65.0379 49.5375 62.3993V59.3486C50.355 59.0016 51.1505 58.6108 51.9248 58.1825ZM32.6285 100.157C31.5986 100.157 30.7608 99.3195 30.7608 98.2895V77.1225C30.7608 76.0926 31.5986 75.2549 32.6285 75.2549H53.7955C54.8255 75.2549 55.6632 76.0926 55.6632 77.1225V98.2895C55.6632 99.3195 54.8255 100.157 53.7955 100.157H32.6285ZM51.9248 103.478V114.38H44.8161V103.478H51.9248ZM40.6105 136.236C34.372 136.236 29.2966 131.237 29.2966 125.092V120.842C29.2966 119.11 30.7343 117.7 32.5017 117.7H104.173C105.941 117.7 107.378 119.11 107.378 120.842V125.092C107.378 129.571 109.449 133.581 112.693 136.236H40.6105ZM122.013 136.236C122.012 136.236 122.012 136.236 122.011 136.236C115.773 136.235 110.699 131.236 110.699 125.092V120.842C110.699 117.279 107.772 114.38 104.174 114.38H55.2455V111.832H133.326V125.093C133.326 131.237 128.251 136.236 122.013 136.236Z" fill="#2B6322"/>
<path d="M50.7771 35.665C50.7771 29.4408 45.712 24.377 39.4864 24.377C33.2605 24.377 28.1953 29.4408 28.1953 35.665C28.1953 41.8909 33.2605 46.9561 39.4864 46.9561C45.712 46.9561 50.7771 41.8909 50.7771 35.665ZM31.5156 35.665C31.5156 31.2716 35.0913 27.6973 39.4864 27.6973C40.179 27.6973 40.851 27.7866 41.4922 27.9533V43.3798C40.851 43.5464 40.179 43.6358 39.4864 43.6358C35.0913 43.6358 31.5156 40.0601 31.5156 35.665ZM44.8125 41.5888V29.7436C46.4345 31.2032 47.4568 33.3169 47.4568 35.665C47.4568 38.0141 46.4345 40.1288 44.8125 41.5888Z" fill="#2B6322"/>
<path d="M48.2356 87.7062H44.9109L46.2962 78.4535C46.3503 78.0926 45.899 77.8851 45.66 78.1606L37.91 87.1029C37.7055 87.339 37.8732 87.7062 38.1856 87.7062H41.5103L40.125 96.9589C40.0709 97.3198 40.5221 97.5274 40.7612 97.2518L48.5111 88.3095C48.7157 88.0734 48.548 87.7062 48.2356 87.7062Z" fill="#56994C"/>
<path d="M148.107 14.432C147.19 14.432 146.447 13.6889 146.447 12.7718C146.447 11.7648 145.628 10.9456 144.621 10.9456C143.704 10.9456 142.961 10.2026 142.961 9.28549C142.961 8.36842 143.704 7.62533 144.621 7.62533C145.628 7.62533 146.447 6.80588 146.447 5.79883C146.447 4.88176 147.19 4.13867 148.107 4.13867C149.024 4.13867 149.768 4.88176 149.768 5.79883C149.768 6.80588 150.587 7.62533 151.594 7.62533C152.511 7.62533 153.254 8.36842 153.254 9.28549C153.254 10.2026 152.511 10.9456 151.594 10.9456C150.587 10.9456 149.768 11.7648 149.768 12.7718C149.768 13.6889 149.024 14.432 148.107 14.432Z" fill="#56994C"/>
<path d="M14.0059 93.5653C13.0888 93.5653 12.3457 92.8222 12.3457 91.9051C12.3457 90.8981 11.5263 90.0789 10.5195 90.0789C9.60246 90.0789 8.85938 89.3359 8.85938 88.4188C8.85938 87.5017 9.60246 86.7586 10.5195 86.7586C11.5263 86.7586 12.3457 85.9392 12.3457 84.9321C12.3457 84.0151 13.0888 83.272 14.0059 83.272C14.9229 83.272 15.666 84.0151 15.666 84.9321C15.666 85.9392 16.4855 86.7586 17.4922 86.7586C18.4093 86.7586 19.1523 87.5017 19.1523 88.4188C19.1523 89.3359 18.4093 90.0789 17.4922 90.0789C16.4855 90.0789 15.666 90.8981 15.666 91.9051C15.666 92.8222 14.9229 93.5653 14.0059 93.5653Z" fill="#56994C"/>
<path d="M155.998 25.9438C155.081 25.9438 154.338 25.2008 154.338 24.2837C154.338 23.277 153.518 22.4575 152.512 22.4575C151.595 22.4575 150.852 21.7144 150.852 20.7974C150.852 19.8803 151.595 19.1372 152.512 19.1372C153.518 19.1372 154.338 18.3178 154.338 17.311C154.338 16.394 155.081 15.6509 155.998 15.6509C156.915 15.6509 157.658 16.394 157.658 17.311C157.658 18.3178 158.478 19.1372 159.484 19.1372C160.401 19.1372 161.145 19.8803 161.145 20.7974C161.145 21.7144 160.401 22.4575 159.484 22.4575C158.478 22.4575 157.658 23.277 157.658 24.2837C157.658 25.2004 156.915 25.9438 155.998 25.9438Z" fill="#56994C"/>
<path d="M13.8716 72.5533C13.5873 72.5533 13.2988 72.4799 13.0355 72.3262L13.0026 72.307C12.2111 71.8444 11.9441 70.8278 12.4066 70.0359C12.8692 69.2446 13.8862 68.9777 14.6777 69.4399L14.7106 69.4591C15.5022 69.9216 15.7691 70.9383 15.3066 71.7302C14.9981 72.2585 14.4423 72.5533 13.8716 72.5533Z" fill="#56994C"/>
<path d="M22.1372 77.327C21.853 77.327 21.5644 77.2536 21.3011 77.0999L21.2683 77.0806C20.4767 76.6181 20.2097 75.6014 20.6723 74.8095C21.1348 74.0183 22.1515 73.7514 22.9434 74.2135L22.9762 74.2328C23.7678 74.6953 24.0347 75.712 23.5722 76.5039C23.2634 77.0322 22.7076 77.327 22.1372 77.327Z" fill="#56994C"/>
<path d="M22.1073 72.5532C21.5362 72.5532 20.9807 72.2584 20.6723 71.7301C20.2097 70.9382 20.4767 69.9215 21.2683 69.459L21.3011 69.4398C22.0934 68.9772 23.11 69.2445 23.5722 70.0358C24.0347 70.8277 23.7678 71.8443 22.9762 72.3069L22.9434 72.3261C22.6797 72.4798 22.3915 72.5532 22.1073 72.5532Z" fill="#56994C"/>
<path d="M13.8417 77.3269C13.2706 77.3269 12.7151 77.0321 12.4066 76.5038C11.9441 75.7119 12.2111 74.6953 13.0026 74.2327L13.0355 74.2135C13.8277 73.7513 14.8444 74.0186 15.3066 74.8095C15.7691 75.6014 15.5022 76.618 14.7106 77.0806L14.6777 77.0998C14.4144 77.2536 14.1262 77.3269 13.8417 77.3269Z" fill="#56994C"/>
<path d="M22.1073 72.5532C21.5362 72.5532 20.9807 72.2584 20.6723 71.7301C20.2097 70.9382 20.4767 69.9215 21.2683 69.459L21.3011 69.4398C22.0934 68.9772 23.11 69.2445 23.5722 70.0358C24.0347 70.8277 23.7678 71.8443 22.9762 72.3069L22.9434 72.3261C22.6797 72.4798 22.3915 72.5532 22.1073 72.5532Z" fill="#56994C"/>
<path d="M13.8417 77.3269C13.2706 77.3269 12.7151 77.0321 12.4066 76.5038C11.9441 75.7119 12.2111 74.6953 13.0026 74.2327L13.0355 74.2135C13.8277 73.7513 14.8444 74.0186 15.3066 74.8095C15.7691 75.6014 15.5022 76.618 14.7106 77.0806L14.6777 77.0998C14.4144 77.2536 14.1262 77.3269 13.8417 77.3269Z" fill="#56994C"/>
<path d="M17.9883 70.1755C17.0712 70.1755 16.3281 69.4325 16.3281 68.5154V68.4775C16.3281 67.5605 17.0712 66.8174 17.9883 66.8174C18.9054 66.8174 19.6484 67.5605 19.6484 68.4775V68.5154C19.6484 69.4321 18.9054 70.1755 17.9883 70.1755Z" fill="#56994C"/>
<path d="M17.9883 79.7224C17.0712 79.7224 16.3281 78.9793 16.3281 78.0623V78.0244C16.3281 77.1073 17.0712 76.3643 17.9883 76.3643C18.9054 76.3643 19.6484 77.1073 19.6484 78.0244V78.0623C19.6484 78.9793 18.9054 79.7224 17.9883 79.7224Z" fill="#56994C"/>
<path d="M25.7856 155.256C25.5014 155.256 25.2129 155.183 24.9496 155.029L24.9167 155.01C24.1251 154.547 23.8582 153.53 24.3207 152.738C24.7832 151.947 25.8002 151.68 26.5918 152.142L26.6247 152.162C27.4162 152.624 27.6832 153.641 27.2207 154.433C26.9122 154.961 26.3564 155.256 25.7856 155.256Z" fill="#56994C"/>
<path d="M34.051 160.029C33.7705 160.029 33.4866 159.958 33.226 159.808L33.1931 159.789C32.3979 159.333 32.1236 158.318 32.5802 157.523C33.037 156.728 34.0514 156.453 34.8466 156.91L34.8795 156.929C35.6747 157.385 35.9489 158.4 35.4924 159.195C35.1853 159.73 34.6261 160.029 34.051 160.029Z" fill="#56994C"/>
<path d="M34.0214 155.256C33.4503 155.256 32.8948 154.961 32.5863 154.433C32.1238 153.641 32.3908 152.624 33.1823 152.162L33.2152 152.143C34.0078 151.681 35.0238 151.947 35.4863 152.739C35.9488 153.53 35.6819 154.547 34.8903 155.01L34.8574 155.029C34.5938 155.183 34.3056 155.256 34.0214 155.256Z" fill="#56994C"/>
<path d="M25.7559 160.03C25.1808 160.03 24.6217 159.73 24.3145 159.196C23.858 158.401 24.1322 157.386 24.9275 156.929L24.9603 156.91C25.7562 156.454 26.7702 156.729 27.2268 157.523C27.6833 158.319 27.4091 159.333 26.6138 159.79L26.581 159.809C26.3203 159.958 26.0361 160.03 25.7559 160.03Z" fill="#56994C"/>
<path d="M34.0214 155.256C33.4503 155.256 32.8948 154.961 32.5863 154.433C32.1238 153.641 32.3908 152.624 33.1823 152.162L33.2152 152.143C34.0078 151.681 35.0238 151.947 35.4863 152.739C35.9488 153.53 35.6819 154.547 34.8903 155.01L34.8574 155.029C34.5938 155.183 34.3056 155.256 34.0214 155.256Z" fill="#56994C"/>
<path d="M25.7559 160.03C25.1808 160.03 24.6217 159.73 24.3145 159.196C23.858 158.401 24.1322 157.386 24.9275 156.929L24.9603 156.91C25.7562 156.454 26.7702 156.729 27.2268 157.523C27.6833 158.319 27.4091 159.333 26.6138 159.79L26.581 159.809C26.3203 159.958 26.0361 160.03 25.7559 160.03Z" fill="#56994C"/>
<path d="M29.9023 152.878C28.9853 152.878 28.2422 152.135 28.2422 151.218V151.18C28.2422 150.263 28.9853 149.52 29.9023 149.52C30.8194 149.52 31.5625 150.263 31.5625 151.18V151.218C31.5625 152.135 30.8194 152.878 29.9023 152.878Z" fill="#56994C"/>
<path d="M29.9023 162.426C28.9853 162.426 28.2422 161.682 28.2422 160.765V160.728C28.2422 159.81 28.9853 159.067 29.9023 159.067C30.8194 159.067 31.5625 159.81 31.5625 160.728V160.765C31.5625 161.682 30.8194 162.426 29.9023 162.426Z" fill="#56994C"/>
</g>
<defs>
<linearGradient id="paint0_linear_6665_2141" x1="9.19495" y1="85" x2="152.096" y2="85" gradientUnits="userSpaceOnUse">
<stop stop-color="#DCF1D9" stop-opacity="0.3"/>
<stop offset="1" stop-color="#DCF1D9"/>
</linearGradient>
<clipPath id="clip0_6665_2141">
<rect width="170" height="170" fill="white"/>
</clipPath>
</defs>
</svg>
