<svg width="170" height="170" viewBox="0 0 170 170" fill="none" xmlns="http://www.w3.org/2000/svg">
<g clip-path="url(#clip0_6665_2314)">
<path d="M32.2544 12.6942C-12.6787 52.3845 45.1475 90.8573 39.6398 134.227C37.191 153.509 44.9702 171.942 70.4207 169.835C101.437 167.268 90.1779 137.559 96.6731 117.78C107.849 83.7465 176.603 91.6957 148.103 39.2719C129.915 5.81714 63.1805 -14.6237 32.2544 12.6942Z" fill="url(#paint0_linear_6665_2314)"/>
<path opacity="0.1" d="M151.586 141.531V133.544C151.586 132.628 150.843 131.884 149.926 131.884H128.643V73.2498C135.942 73.021 141.789 67.0362 141.789 59.6817C141.789 52.3272 135.942 46.3423 128.643 46.1136V37.237C128.643 34.0356 126.047 31.4401 122.846 31.4401H63.8646C61.5119 24.7819 55.1654 20.0103 47.7017 20.0103C38.2348 20.0103 30.5606 27.6845 30.5606 37.1514C30.5606 42.6023 33.1082 47.4556 37.0744 50.595V64.0731C37.0744 64.9899 37.8178 65.7333 38.7345 65.7333H48.5205V97.9636H28.8164C27.8997 97.9636 27.1562 98.707 27.1562 99.6237V107.61C27.1562 108.527 27.8997 109.27 28.8164 109.27C27.8997 109.27 27.1562 110.013 27.1562 110.93V118.917C27.1562 119.833 27.8997 120.577 28.8164 120.577C27.8997 120.577 27.1562 121.32 27.1562 122.237V130.223C27.1562 131.14 27.8997 131.884 28.8164 131.884C27.8997 131.884 27.1562 132.627 27.1562 133.544V141.53C27.1562 142.447 27.8997 143.19 28.8164 143.19C27.8997 143.19 27.1562 143.934 27.1562 144.85V152.837C27.1562 153.753 27.8997 154.497 28.8164 154.497H149.926C150.843 154.497 151.586 153.753 151.586 152.837V144.85C151.586 143.934 150.843 143.19 149.926 143.19C150.843 143.191 151.586 142.447 151.586 141.531Z" fill="#2B6322"/>
<path d="M56.6695 146.529H28.8164C27.8997 146.529 27.1562 145.785 27.1562 144.868V136.882C27.1562 135.965 27.8997 135.222 28.8164 135.222H56.6692C57.5859 135.222 58.3293 135.965 58.3293 136.882V144.868C58.3297 145.786 57.5863 146.529 56.6695 146.529Z" fill="white"/>
<path d="M56.6695 135.222H28.8164C27.8997 135.222 27.1562 134.479 27.1562 133.562V125.575C27.1562 124.659 27.8997 123.915 28.8164 123.915H56.6692C57.5859 123.915 58.3293 124.659 58.3293 125.575V133.562C58.3297 134.479 57.5863 135.222 56.6695 135.222Z" fill="white"/>
<path d="M56.6695 123.915H28.8164C27.8997 123.915 27.1562 123.172 27.1562 122.255V114.268C27.1562 113.352 27.8997 112.608 28.8164 112.608H56.6692C57.5859 112.608 58.3293 113.352 58.3293 114.268V122.255C58.3297 123.172 57.5863 123.915 56.6695 123.915Z" fill="white"/>
<path d="M56.6695 112.608H28.8164C27.8997 112.608 27.1562 111.865 27.1562 110.948V102.962C27.1562 102.045 27.8997 101.302 28.8164 101.302H56.6692C57.5859 101.302 58.3293 102.045 58.3293 102.962V110.948C58.3297 111.865 57.5863 112.608 56.6695 112.608Z" fill="white"/>
<path d="M56.6695 101.302H28.8164C27.8997 101.302 27.1562 100.558 27.1562 99.6414V91.655C27.1562 90.7383 27.8997 89.9949 28.8164 89.9949H56.6692C57.5859 89.9949 58.3293 90.7383 58.3293 91.655V99.6414C58.3297 100.558 57.5863 101.302 56.6695 101.302Z" fill="white"/>
<path d="M58.327 23.4712C55.1262 23.4712 52.5297 26.0677 52.5297 29.2685V57.7634H38.7305C37.8141 57.7634 37.0703 57.0196 37.0703 56.1032V29.2685C37.0703 26.0677 39.6668 23.4712 42.8676 23.4712H58.327Z" fill="#56994C"/>
<path d="M128.638 29.2685V146.529H54.3133C51.1092 146.529 48.516 143.932 48.516 140.731V29.2685C48.516 26.0677 45.9195 23.4712 42.7188 23.4712H122.841C126.042 23.4712 128.638 26.0677 128.638 29.2685Z" fill="white"/>
<path d="M53.9766 146.529H134.099C137.301 146.529 139.896 143.933 139.896 140.731V130.87C139.896 129.953 139.153 129.21 138.236 129.21H61.434C60.5172 129.21 59.7738 129.953 59.7738 130.87V140.731C59.7738 143.932 57.1773 146.529 53.9766 146.529Z" fill="#56994C"/>
<path d="M149.927 146.529H122.074C121.157 146.529 120.414 145.785 120.414 144.868V136.882C120.414 135.965 121.157 135.222 122.074 135.222H149.927C150.844 135.222 151.587 135.965 151.587 136.882V144.868C151.587 145.786 150.844 146.529 149.927 146.529Z" fill="white"/>
<path d="M149.927 135.222H122.074C121.157 135.222 120.414 134.479 120.414 133.562V125.575C120.414 124.659 121.157 123.915 122.074 123.915H149.927C150.844 123.915 151.587 124.659 151.587 125.575V133.562C151.587 134.479 150.844 135.222 149.927 135.222Z" fill="white"/>
<path d="M144.449 74.8444C144.024 74.8444 143.599 74.6824 143.275 74.3583L141.793 72.8761L140.31 74.3583C139.663 75.0064 138.611 75.0064 137.963 74.3583C137.314 73.7098 137.314 72.6586 137.963 72.0105L140.619 69.3543C141.267 68.7061 142.319 68.7061 142.967 69.3543L145.623 72.0105C146.271 72.659 146.271 73.7102 145.623 74.3583C145.299 74.682 144.874 74.8444 144.449 74.8444Z" fill="#56994C"/>
<path d="M125.355 16.3578C124.931 16.3578 124.505 16.1958 124.182 15.8717L122.699 14.3895L121.217 15.8717C120.569 16.5199 119.517 16.5199 118.869 15.8717C118.221 15.2233 118.221 14.1721 118.869 13.5239L121.525 10.8677C122.173 10.2196 123.225 10.2196 123.873 10.8677L126.529 13.5239C127.178 14.1724 127.178 15.2236 126.529 15.8717C126.205 16.1955 125.78 16.3578 125.355 16.3578Z" fill="#56994C"/>
<path d="M23.7226 84.7921C23.2979 84.7921 22.8726 84.6301 22.5488 84.3061L21.0663 82.8239L19.5838 84.3061C18.936 84.9542 17.8841 84.9542 17.2363 84.3061C16.5879 83.6576 16.5879 82.6064 17.2363 81.9583L19.8926 79.302C20.5404 78.6539 21.5923 78.6539 22.2401 79.302L24.8963 81.9583C25.5448 82.6067 25.5448 83.6579 24.8963 84.3061C24.5726 84.6301 24.1476 84.7921 23.7226 84.7921Z" fill="#56994C"/>
<path d="M141.316 21.811H140.32V20.8149C140.32 19.8982 139.577 19.1548 138.66 19.1548C137.743 19.1548 137 19.8982 137 20.8149V21.811H136.004C135.087 21.811 134.344 22.5545 134.344 23.4712C134.344 24.3879 135.087 25.1313 136.004 25.1313H137V26.1274C137 27.0442 137.743 27.7876 138.66 27.7876C139.577 27.7876 140.32 27.0442 140.32 26.1274V25.1313H141.316C142.233 25.1313 142.977 24.3879 142.977 23.4712C142.977 22.5545 142.233 21.811 141.316 21.811Z" fill="#56994C"/>
<path d="M108.355 155.322H107.359V154.325C107.359 153.409 106.616 152.665 105.699 152.665C104.782 152.665 104.039 153.409 104.039 154.325V155.322H103.043C102.126 155.322 101.383 156.065 101.383 156.982C101.383 157.898 102.126 158.642 103.043 158.642H104.039V159.638C104.039 160.555 104.782 161.298 105.699 161.298C106.616 161.298 107.359 160.555 107.359 159.638V158.642H108.355C109.273 158.642 110.016 157.898 110.016 156.982C110.016 156.065 109.273 155.322 108.355 155.322Z" fill="#56994C"/>
<path d="M58.707 96.6621H120.046C120.964 96.6621 121.707 95.9187 121.707 95.002C121.707 94.0852 120.964 93.3418 120.046 93.3418H58.707C57.79 93.3418 57.0469 94.0852 57.0469 95.002C57.0469 95.9187 57.79 96.6621 58.707 96.6621Z" fill="#2B6322"/>
<path d="M92.1133 116.925H114.605C115.522 116.925 116.265 116.181 116.265 115.265C116.265 114.348 115.522 113.604 114.605 113.604H92.1133C91.1962 113.604 90.4531 114.348 90.4531 115.265C90.4531 116.181 91.1962 116.925 92.1133 116.925Z" fill="#2B6322"/>
<path d="M112.035 110.275H114.605C115.522 110.275 116.266 109.532 116.266 108.615C116.266 107.698 115.522 106.955 114.605 106.955H112.035C111.118 106.955 110.375 107.698 110.375 108.615C110.375 109.532 111.118 110.275 112.035 110.275Z" fill="#2B6322"/>
<path d="M99.0898 110.275H104.648C105.565 110.275 106.308 109.532 106.308 108.615C106.308 107.698 105.565 106.955 104.648 106.955H99.0898C98.1728 106.955 97.4297 107.698 97.4297 108.615C97.4297 109.532 98.1728 110.275 99.0898 110.275Z" fill="#2B6322"/>
<path d="M65.1133 88.0835H90.5934C91.5104 88.0835 92.2535 87.3401 92.2535 86.4233C92.2535 85.5066 91.5104 84.7632 90.5934 84.7632H65.1133C64.1962 84.7632 63.4531 85.5066 63.4531 86.4233C63.4531 87.3404 64.1962 88.0835 65.1133 88.0835Z" fill="#2B6322"/>
<path d="M65.1133 80.8206H80.6324C81.5495 80.8206 82.2926 80.0771 82.2926 79.1604C82.2926 78.2437 81.5495 77.5002 80.6324 77.5002H65.1133C64.1962 77.5002 63.4531 78.2437 63.4531 79.1604C63.4531 80.0771 64.1962 80.8206 65.1133 80.8206Z" fill="#2B6322"/>
<path d="M65.1133 73.5579H90.5934C91.5104 73.5579 92.2535 72.8144 92.2535 71.8977C92.2535 70.981 91.5104 70.2375 90.5934 70.2375H65.1133C64.1962 70.2375 63.4531 70.981 63.4531 71.8977C63.4531 72.8144 64.1962 73.5579 65.1133 73.5579Z" fill="#2B6322"/>
<path d="M65.1133 66.2947H87.6051C88.5221 66.2947 89.2652 65.5513 89.2652 64.6345C89.2652 63.7178 88.5221 62.9744 87.6051 62.9744H65.1133C64.1962 62.9744 63.4531 63.7178 63.4531 64.6345C63.4531 65.5513 64.1962 66.2947 65.1133 66.2947Z" fill="#2B6322"/>
<path d="M65.1133 59.0317H83.6207C84.5378 59.0317 85.2809 58.2883 85.2809 57.3716C85.2809 56.4548 84.5378 55.7114 83.6207 55.7114H65.1133C64.1962 55.7114 63.4531 56.4548 63.4531 57.3716C63.4531 58.2883 64.1962 59.0317 65.1133 59.0317Z" fill="#2B6322"/>
<path d="M65.1133 51.7686H90.5934C91.5104 51.7686 92.2535 51.0251 92.2535 50.1084C92.2535 49.1917 91.5104 48.4482 90.5934 48.4482H65.1133C64.1962 48.4482 63.4531 49.1917 63.4531 50.1084C63.4531 51.0251 64.1962 51.7686 65.1133 51.7686Z" fill="#2B6322"/>
<path d="M107.059 88.0835H112.617C113.534 88.0835 114.277 87.3401 114.277 86.4233C114.277 85.5066 113.534 84.7632 112.617 84.7632H107.059C106.142 84.7632 105.398 85.5066 105.398 86.4233C105.398 87.3404 106.142 88.0835 107.059 88.0835Z" fill="#2B6322"/>
<path d="M107.059 80.8206H112.617C113.534 80.8206 114.277 80.0771 114.277 79.1604C114.277 78.2437 113.534 77.5002 112.617 77.5002H107.059C106.142 77.5002 105.398 78.2437 105.398 79.1604C105.398 80.0771 106.142 80.8206 107.059 80.8206Z" fill="#2B6322"/>
<path d="M107.059 73.5579H112.617C113.534 73.5579 114.277 72.8144 114.277 71.8977C114.277 70.981 113.534 70.2375 112.617 70.2375H107.059C106.142 70.2375 105.398 70.981 105.398 71.8977C105.398 72.8144 106.142 73.5579 107.059 73.5579Z" fill="#2B6322"/>
<path d="M107.059 66.2947H112.617C113.534 66.2947 114.277 65.5513 114.277 64.6345C114.277 63.7178 113.534 62.9744 112.617 62.9744H107.059C106.142 62.9744 105.398 63.7178 105.398 64.6345C105.398 65.5513 106.142 66.2947 107.059 66.2947Z" fill="#2B6322"/>
<path d="M107.059 59.0317H112.617C113.534 59.0317 114.277 58.2883 114.277 57.3716C114.277 56.4548 113.534 55.7114 112.617 55.7114H107.059C106.142 55.7114 105.398 56.4548 105.398 57.3716C105.398 58.2883 106.142 59.0317 107.059 59.0317Z" fill="#2B6322"/>
<path d="M107.059 51.7686H112.617C113.534 51.7686 114.277 51.0251 114.277 50.1084C114.277 49.1917 113.534 48.4482 112.617 48.4482H107.059C106.142 48.4482 105.398 49.1917 105.398 50.1084C105.398 51.0251 106.142 51.7686 107.059 51.7686Z" fill="#2B6322"/>
<path d="M141.458 54.8148C143.153 47.5103 138.606 40.2148 131.301 38.5199C123.997 36.825 116.701 41.3725 115.006 48.6771C113.311 55.9816 117.859 63.2771 125.164 64.9719C132.468 66.6668 139.764 62.1193 141.458 54.8148Z" fill="#56994C"/>
<path d="M133.727 49.5168C133.727 46.475 131.253 44.0007 128.211 44.0007C125.17 44.0007 122.695 46.4754 122.695 49.5168C122.695 51.0169 123.299 52.3772 124.274 53.3726C123.299 54.3681 122.695 55.7284 122.695 57.2285C122.695 58.1453 123.439 58.8887 124.355 58.8887C125.272 58.8887 126.016 58.1453 126.016 57.2285C126.016 56.0179 127.001 55.0328 128.211 55.0328C129.422 55.0328 130.407 56.0179 130.407 57.2285C130.407 58.1453 131.15 58.8887 132.067 58.8887C132.984 58.8887 133.727 58.1453 133.727 57.2285C133.727 55.7284 133.124 54.3681 132.149 53.3726C133.124 52.3775 133.727 51.0169 133.727 49.5168ZM128.211 47.321C129.422 47.321 130.407 48.3062 130.407 49.5168C130.407 50.7274 129.422 51.7125 128.211 51.7125C127 51.7125 126.016 50.7274 126.016 49.5168C126.016 48.3062 127.001 47.321 128.211 47.321Z" fill="#2B6322"/>
<path d="M74.7942 109.645H74.5276V106.998H77.1413C78.0584 106.998 78.8015 106.255 78.8015 105.338C78.8015 104.421 78.0584 103.678 77.1413 103.678H74.5276V103.116C74.5276 102.2 73.7845 101.456 72.8674 101.456C71.9504 101.456 71.2073 102.2 71.2073 103.116V103.678H70.9407C68.38 103.678 66.2969 105.761 66.2969 108.322C66.2969 110.882 68.3804 112.966 70.9407 112.966H71.2073V115.612H68.5935C67.6765 115.612 66.9334 116.356 66.9334 117.273C66.9334 118.189 67.6765 118.933 68.5935 118.933H71.2073V119.495C71.2073 120.411 71.9504 121.155 72.8674 121.155C73.7845 121.155 74.5276 120.411 74.5276 119.495V118.933H74.7942C77.3548 118.933 79.438 116.85 79.438 114.289C79.438 111.728 77.3548 109.645 74.7942 109.645ZM70.941 109.645C70.2112 109.645 69.6175 109.052 69.6175 108.322C69.6175 107.592 70.2112 106.998 70.941 106.998H71.2076V109.645H70.941ZM74.7942 115.612H74.5276V112.966H74.7942C75.524 112.966 76.1177 113.559 76.1177 114.289C76.118 115.019 75.5244 115.612 74.7942 115.612Z" fill="#2B6322"/>
<path d="M47.7036 46.3235C57.1704 46.3235 64.8447 38.6491 64.8447 29.1824C64.8447 19.7156 57.1704 12.0413 47.7036 12.0413C38.2368 12.0413 30.5625 19.7156 30.5625 29.1824C30.5625 38.6491 38.2368 46.3235 47.7036 46.3235Z" fill="white"/>
<path d="M153.25 125.575C153.25 123.745 151.761 122.255 149.93 122.255H130.307V76.2456C130.307 75.3288 129.564 74.5854 128.647 74.5854C127.729 74.5854 126.986 75.3288 126.986 76.2456V122.255H122.077C120.246 122.255 118.757 123.744 118.757 125.575V133.561C118.757 134.166 118.922 134.733 119.206 135.222C118.922 135.711 118.757 136.277 118.757 136.882V144.868H60.185C60.9779 143.684 61.4404 142.26 61.4404 140.731V130.87H109.463C110.38 130.87 111.123 130.126 111.123 129.21C111.123 128.293 110.38 127.549 109.463 127.549H61.4404C59.6096 127.549 58.1201 129.039 58.1201 130.87V140.731C58.1201 142.955 56.3547 144.77 54.152 144.859C51.9496 144.77 50.1842 142.955 50.1842 140.731V47.8154C59.3831 46.5978 66.5069 38.7091 66.5069 29.1825C66.5069 27.7916 66.3505 26.4372 66.0626 25.1313H122.85C125.131 25.1313 126.986 26.9871 126.986 29.2681V36.5273C119.156 37.1552 112.975 43.7234 112.975 51.7128C112.975 60.1158 119.811 66.952 128.214 66.952C136.617 66.952 143.454 60.1158 143.454 51.7128C143.454 44.0199 137.723 37.6439 130.307 36.6206V29.2678C130.307 25.1559 126.961 21.8107 122.85 21.8107H65.0001C62.1277 15.0974 55.4575 10.3809 47.7059 10.3809C37.3389 10.3809 28.9047 18.8151 28.9047 29.1821C28.9047 34.8545 31.4331 39.9443 35.4181 43.3944V56.1042C35.4181 57.935 36.9076 59.4245 38.7384 59.4245H46.8642V88.3345H28.8203C26.9895 88.3345 25.5 89.824 25.5 91.6548V99.6415C25.5 100.246 25.6654 100.813 25.9492 101.302C25.6654 101.791 25.5 102.357 25.5 102.962V110.948C25.5 111.553 25.6654 112.119 25.9492 112.608C25.6654 113.097 25.5 113.663 25.5 114.268V122.255C25.5 122.86 25.6654 123.426 25.9492 123.915C25.6654 124.404 25.5 124.97 25.5 125.575V133.561C25.5 134.166 25.6654 134.733 25.9492 135.222C25.6654 135.711 25.5 136.277 25.5 136.882V144.868C25.5 146.699 26.9895 148.188 28.8203 148.188H149.93C151.761 148.188 153.25 146.699 153.25 144.868V136.882C153.25 136.277 153.085 135.711 152.801 135.222C153.085 134.733 153.25 134.166 153.25 133.561V125.575ZM140.133 51.7128C140.133 58.285 134.786 63.6317 128.214 63.6317C121.642 63.6317 116.295 58.285 116.295 51.7128C116.295 45.1405 121.642 39.7938 128.214 39.7938C134.786 39.7935 140.133 45.1405 140.133 51.7128ZM28.8203 125.575H46.8642V133.562H28.8203V125.575ZM28.8203 114.268H46.8642V122.255H28.8203V114.268ZM28.8203 102.962H46.8642V110.948H28.8203V102.962ZM32.225 29.1825C32.225 20.6463 39.1697 13.7015 47.7059 13.7015C56.2421 13.7015 63.1869 20.6463 63.1869 29.1825C63.1869 37.719 56.2421 44.6634 47.7059 44.6634C39.1697 44.6634 32.225 37.7186 32.225 29.1825ZM38.7384 56.1042V45.7037C41.1732 47.0308 43.9327 47.8327 46.8642 47.9625V56.1042H38.7384ZM28.8203 91.6548H46.8642V99.6411H28.8203V91.6548ZM28.8203 136.882H46.8642V140.732C46.8642 142.261 47.3274 143.684 48.1203 144.868H28.8203V136.882ZM122.077 125.575H149.93L149.932 133.562L122.077 133.562V125.575ZM122.077 144.868V136.882H149.93L149.932 144.868H122.077Z" fill="#2B6322"/>
<path d="M49.6302 27.5222H49.3635V24.8753H51.9773C52.8944 24.8753 53.6374 24.1319 53.6374 23.2151C53.6374 22.2984 52.8944 21.555 51.9773 21.555H49.3635V20.9932C49.3635 20.0764 48.6204 19.333 47.7034 19.333C46.7863 19.333 46.0432 20.0764 46.0432 20.9932V21.555H45.7766C43.216 21.555 41.1328 23.6381 41.1328 26.1987C41.1328 28.7594 43.216 30.8425 45.7766 30.8425H46.0432V33.4895H43.4295C42.5124 33.4895 41.7693 34.2329 41.7693 35.1496C41.7693 36.0664 42.5124 36.8098 43.4295 36.8098H46.0432V37.3716C46.0432 38.2883 46.7863 39.0318 47.7034 39.0318C48.6204 39.0318 49.3635 38.2883 49.3635 37.3716V36.8098H49.6302C52.1908 36.8098 54.2739 34.7266 54.2739 32.166C54.2743 29.6054 52.1908 27.5222 49.6302 27.5222ZM45.7769 27.5222C45.0471 27.5222 44.4535 26.9286 44.4535 26.1987C44.4535 25.4689 45.0471 24.8753 45.7769 24.8753H46.0436V27.5222H45.7769ZM49.6302 33.4895H49.3635V30.8425H49.6302C50.36 30.8425 50.9536 31.4362 50.9536 32.166C50.954 32.8958 50.3603 33.4895 49.6302 33.4895Z" fill="#2B6322"/>
</g>
<defs>
<linearGradient id="paint0_linear_6665_2314" x1="75.9894" y1="-72.734" x2="117.129" y2="327.322" gradientUnits="userSpaceOnUse">
<stop stop-color="#DCF1D9" stop-opacity="0.3"/>
<stop offset="1" stop-color="#DCF1D9"/>
</linearGradient>
<clipPath id="clip0_6665_2314">
<rect width="170" height="170" fill="white"/>
</clipPath>
</defs>
</svg>
