<svg width="170" height="170" viewBox="0 0 170 170" fill="none" xmlns="http://www.w3.org/2000/svg">
<path d="M161.853 153.415C141.348 193.527 87.5469 147.406 53.4964 143.293C39.1467 141.56 35.4754 156.475 16.7854 156.475C0.0257601 156.475 -9.2585 128.29 13.7098 120.277C69.9439 100.659 43.9561 23.8532 69.8456 4.50809C77.915 -1.5216 89.7794 -0.609179 98.5401 4.36598C119.981 16.5422 95.0036 46.6893 102.531 65.4979C119.391 107.628 194.549 89.456 161.853 153.415Z" fill="url(#paint0_linear_6665_2241)"/>
<path opacity="0.1" d="M152.859 64.6956C152.859 58.2073 149.948 52.4024 145.364 48.5047C149.59 46.5763 152.529 42.3167 152.529 37.3681C152.529 30.6089 147.05 25.1294 140.29 25.1294C133.531 25.1294 128.052 30.6089 128.052 37.3681C128.052 39.6172 128.661 41.723 129.72 43.5339C126.488 43.8188 123.464 44.8262 120.81 46.3957L85.6687 31.0253C85.2447 30.8397 84.7623 30.8397 84.3383 31.0253L24.9887 56.9835C24.3844 57.2478 23.9939 57.8448 23.9939 58.5045V95.5831C14.1827 98.0063 6.90625 106.863 6.90625 117.422C6.90625 130.493 23.8538 149.61 28.3312 154.432C28.9123 155.058 29.8988 155.058 30.4795 154.432C32.901 151.824 38.9685 145.035 44.0313 137.283L84.3383 154.912C84.7623 155.098 85.2447 155.098 85.6687 154.912L145.018 128.954C145.622 128.69 146.013 128.093 146.013 127.433V80.315C150.221 76.4322 152.859 70.873 152.859 64.6956Z" fill="#2B6322"/>
<path d="M85.0016 22.7656L57.9915 34.5793L58.204 36.3537L53.8504 36.3905L23.9922 49.4496L25.6523 51.9877L85.0016 77.7938L144.351 51.9917L146.011 49.4496L85.0016 22.7656Z" fill="white"/>
<path d="M119.009 61.2597L114.869 63.0726L53.8516 36.3905L57.992 34.5776L119.009 61.2597Z" fill="#56994C"/>
<path d="M127.845 57.3949L119.01 61.2604L115.99 61.2953L114.869 63.0723L104.47 67.6215L89.62 61.1273C88.2932 60.5472 88.2935 58.6652 89.62 58.0852L96.5415 55.0584L100.695 55.1092L100.684 53.2465L108.273 49.9278C109.035 49.5948 109.9 49.5942 110.662 49.9252L127.845 57.3949Z" fill="#56994C"/>
<path d="M119.008 61.2597L114.867 63.0726L96.5391 55.0574L100.683 53.2478L119.008 61.2597Z" fill="white"/>
<path d="M85.0016 76.1337L86.6618 77.2198V145.18L85.0016 147.234L23.9922 120.55V49.4497L85.0016 76.1337Z" fill="white"/>
<path d="M32.2969 115.121V62.1401L76.7047 81.563V134.544L32.2969 115.121Z" fill="#56994C"/>
<path d="M85 76.1337V147.234L93.7384 143.412L95.3982 140.874L113.18 133.097L114.841 134.183L146.009 120.55V49.4497L127.842 57.3955L126.094 59.8204L106.156 68.5408L104.466 67.6198L85 76.1337Z" fill="#56994C"/>
<path d="M127.845 57.3948V84.1143C127.845 85.3017 127.143 86.3765 126.054 86.8523L119.033 89.9232L116.951 89.1735L114.869 91.7441L106.826 95.262C105.729 95.7417 104.5 94.9379 104.5 93.7409V67.6081L114.869 63.0718L117.346 63.6483L119.01 61.2603L127.845 57.3948Z" fill="white"/>
<path d="M119.008 61.2598L119.031 89.9234L114.867 91.7442V63.0727L119.008 61.2598Z" fill="#56994C"/>
<path d="M93.7422 122.921V143.412L114.844 134.183V113.694L113.184 112.76L95.402 120.535L93.7422 122.921Z" fill="white"/>
<path d="M135.826 118.253C135.186 118.253 134.576 117.881 134.304 117.257C133.936 116.417 134.319 115.438 135.159 115.071L138.583 113.573C139.423 113.205 140.402 113.588 140.77 114.429C141.137 115.269 140.754 116.247 139.914 116.615L136.49 118.113C136.273 118.208 136.048 118.253 135.826 118.253Z" fill="white"/>
<path d="M135.826 112.458C135.186 112.458 134.576 112.086 134.304 111.462C133.936 110.622 134.319 109.643 135.159 109.276L138.583 107.778C139.423 107.41 140.402 107.794 140.77 108.634C141.137 109.474 140.754 110.452 139.914 110.82L136.49 112.318C136.273 112.413 136.048 112.458 135.826 112.458Z" fill="white"/>
<path d="M51.9041 109.453C51.9041 122.521 34.9622 141.634 30.4815 146.461C29.9001 147.087 28.9106 147.087 28.3289 146.461C23.8481 141.634 6.90625 122.521 6.90625 109.453C6.90625 97.0273 16.9794 86.9541 29.4053 86.9541C41.8313 86.9541 51.9041 97.0276 51.9041 109.453Z" fill="#56994C"/>
<path d="M29.402 123.449C37.1317 123.449 43.3978 117.183 43.3978 109.453C43.3978 101.724 37.1317 95.4575 29.402 95.4575C21.6724 95.4575 15.4062 101.724 15.4062 109.453C15.4062 117.183 21.6724 123.449 29.402 123.449Z" fill="white"/>
<path d="M22.9883 111.113C23.9052 111.113 24.6484 110.37 24.6484 109.453C24.6484 108.536 23.9052 107.793 22.9883 107.793C22.0714 107.793 21.3281 108.536 21.3281 109.453C21.3281 110.37 22.0714 111.113 22.9883 111.113Z" fill="#56994C"/>
<path d="M29.4023 111.113C30.3192 111.113 31.0625 110.37 31.0625 109.453C31.0625 108.536 30.3192 107.793 29.4023 107.793C28.4855 107.793 27.7422 108.536 27.7422 109.453C27.7422 110.37 28.4855 111.113 29.4023 111.113Z" fill="#56994C"/>
<path d="M35.8164 111.113C36.7333 111.113 37.4766 110.37 37.4766 109.453C37.4766 108.536 36.7333 107.793 35.8164 107.793C34.8995 107.793 34.1562 108.536 34.1562 109.453C34.1562 110.37 34.8995 111.113 35.8164 111.113Z" fill="#56994C"/>
<path d="M131.602 77.9768C143.338 77.9768 152.852 68.4629 152.852 56.7268C152.852 44.9908 143.338 35.4768 131.602 35.4768C119.866 35.4768 110.352 44.9908 110.352 56.7268C110.352 68.4629 119.866 77.9768 131.602 77.9768Z" fill="white"/>
<path d="M147.194 56.7274C147.194 61.0339 145.448 64.9286 142.629 67.7509L139.9 67.3465L129.945 57.3915V43.4601L131.605 41.1353C140.215 41.1353 147.194 48.1146 147.194 56.7274Z" fill="white"/>
<path d="M142.623 67.7506C139.801 70.5729 135.903 72.3161 131.6 72.3161C122.99 72.3161 116.008 65.3368 116.008 56.7272C116.008 48.1176 122.99 41.135 131.6 41.135V56.7272L142.623 67.7506Z" fill="#56994C"/>
<path d="M131.598 58.676C132.674 58.676 133.547 57.8033 133.547 56.7267C133.547 55.6501 132.674 54.7773 131.598 54.7773C130.521 54.7773 129.648 55.6501 129.648 56.7267C129.648 57.8033 130.521 58.676 131.598 58.676Z" fill="white"/>
<path d="M140.286 41.638C147.045 41.638 152.524 36.1585 152.524 29.3993C152.524 22.6401 147.045 17.1606 140.286 17.1606C133.526 17.1606 128.047 22.6401 128.047 29.3993C128.047 36.1585 133.526 41.638 140.286 41.638Z" fill="#56994C"/>
<path d="M138.734 34.1875C138.309 34.1875 137.884 34.0255 137.56 33.7014L134.408 30.5495C133.76 29.901 133.76 28.8498 134.408 28.2017C135.056 27.5535 136.108 27.5535 136.756 28.2017L138.734 30.1799L143.817 25.0972C144.465 24.4491 145.517 24.4491 146.164 25.0972C146.813 25.7456 146.813 26.7968 146.164 27.445L139.908 33.7014C139.584 34.0255 139.159 34.1875 138.734 34.1875Z" fill="white"/>
<path d="M114.843 107.283V113.694L93.7422 122.921V115.929C93.7422 114.74 94.4428 113.664 95.5318 113.189L112.519 105.762C113.614 105.28 114.843 106.084 114.843 107.283Z" fill="#56994C"/>
<path d="M104.34 96.5181C104.888 96.88 105.519 97.0626 106.153 97.0626C106.605 97.0626 107.06 96.9697 107.488 96.7837L126.716 88.3734C128.409 87.633 129.502 85.9628 129.502 84.1134V79.538C130.195 79.6014 130.897 79.6376 131.607 79.6376C144.239 79.6376 154.517 69.3603 154.517 56.7275C154.517 50.7778 152.212 45.116 148.131 40.8644C151.784 38.3575 154.185 34.154 154.185 29.399C154.185 21.735 147.951 15.5005 140.287 15.5005C132.623 15.5005 126.388 21.7354 126.388 29.399C126.388 31.0997 126.697 32.7293 127.258 34.2363C124.958 34.6783 122.754 35.4679 120.712 36.5725L85.6648 21.2426C85.2408 21.057 84.7584 21.057 84.334 21.2426C84.334 21.2426 23.0855 48.0578 23.0812 48.0601C22.6124 48.3669 22.3298 48.8892 22.3298 49.4497V86.3526C12.4483 89.3838 5.24219 98.592 5.24219 109.454C5.24219 122.986 21.9789 142.065 27.1081 147.59C27.6981 148.226 28.5338 148.591 29.4004 148.591H29.4011C30.2677 148.591 31.1034 148.227 31.6938 147.591C36.8233 142.066 53.56 122.986 53.56 109.454C53.56 96.1323 42.7222 85.2945 29.4008 85.2945C28.1248 85.2945 26.8724 85.3957 25.6495 85.587V51.9877L83.3393 77.2198V144.696L53.2605 131.54C52.4202 131.173 51.4413 131.556 51.0741 132.396C50.7069 133.236 51.0901 134.215 51.9298 134.582L84.334 148.755C84.5472 148.849 84.7736 148.894 84.9994 148.894C85.2259 148.894 85.451 148.846 85.6611 148.754C85.6618 148.754 85.6638 148.756 85.6648 148.755L146.674 122.071C147.279 121.807 147.669 121.21 147.669 120.55V82.766C147.669 81.8493 146.926 81.1059 146.009 81.1059C145.092 81.1059 144.349 81.8493 144.349 82.766V119.464L116.5 131.644V107.282C116.5 106.157 115.938 105.118 114.997 104.503C114.057 103.887 112.88 103.789 111.849 104.24L94.8634 111.669C93.171 112.409 92.0776 114.081 92.0776 115.928V142.326L86.6596 144.696V77.2198L102.836 70.1445V93.7423C102.836 94.8646 103.397 95.9039 104.34 96.5181ZM29.4014 88.6148C40.8917 88.6148 50.2404 97.9631 50.2404 109.454C50.2404 121.933 33.2055 141.065 29.4014 145.18C25.596 141.063 8.5625 121.932 8.5625 109.454C8.5625 97.9631 17.9108 88.6148 29.4014 88.6148ZM95.3976 115.928C95.3976 115.4 95.7101 114.923 96.1935 114.711L113.18 107.282V133.097L95.3973 140.875V115.928H95.3976ZM126.181 84.1134C126.181 84.6413 125.869 85.1195 125.384 85.332L106.156 93.7423V68.6922L110.937 66.6014C113.873 72.7228 119.45 77.3433 126.181 78.9849V84.1134ZM140.287 18.8208C146.12 18.8208 150.865 23.5662 150.865 29.399C150.865 35.2318 146.12 39.9775 140.287 39.9775C134.454 39.9775 129.709 35.2321 129.709 29.399C129.709 23.5659 134.454 18.8208 140.287 18.8208ZM145.536 56.7268C145.536 64.4084 139.286 70.6579 131.605 70.6579C123.923 70.6579 117.674 64.4084 117.674 56.7268C117.674 49.0453 123.923 42.7961 131.605 42.7961C139.286 42.7961 145.536 49.0453 145.536 56.7268ZM128.882 37.3286C129.431 38.1161 130.063 38.84 130.759 39.4974C121.638 39.94 114.354 47.4983 114.354 56.7268C114.354 66.2392 122.093 73.9782 131.605 73.9782C141.117 73.9782 148.856 66.2392 148.856 56.7268C148.856 51.2247 146.263 46.32 142.24 43.1587C143.205 43.0222 144.14 42.7878 145.032 42.4628C148.96 46.1639 151.196 51.3071 151.196 56.7275C151.196 67.5295 142.408 76.3173 131.606 76.3173C120.804 76.3173 112.016 67.5295 112.016 56.7275C112.017 46.832 119.2 38.659 128.882 37.3286ZM84.9994 74.3218L28.1321 49.4494L84.9994 24.5762L117.409 38.7526C116.465 39.4994 115.572 40.3195 114.745 41.2176C112.867 43.2576 111.4 45.5945 110.379 48.1103C109.452 47.9257 108.48 48.0246 107.604 48.4068L88.9506 56.5648C87.7254 57.0994 86.9617 58.2681 86.9617 59.6062C86.9617 60.9443 87.7254 62.113 88.9506 62.6476L100.322 67.6201L84.9994 74.3218ZM90.282 59.6062L108.936 51.4482C109.062 51.3931 109.198 51.3655 109.334 51.3519C108.914 53.0964 108.696 54.899 108.696 56.7275C108.696 59.0876 109.056 61.365 109.721 63.5089L104.463 65.8089L90.282 59.6062Z" fill="#2B6322"/>
<path d="M127.182 56.9145C127.321 58.9605 129.215 60.8634 131.26 61.0105C131.995 61.0632 132.695 60.9351 133.321 60.6665L137.275 64.5854C137.926 65.2309 138.977 65.2263 139.623 64.5748C140.268 63.9237 140.264 62.8725 139.612 62.227L135.658 58.3084C135.921 57.6805 136.043 56.9796 135.984 56.2458C135.819 54.2018 133.9 52.3249 131.853 52.204C129.193 52.0463 127.002 54.2566 127.182 56.9145ZM132.678 56.6041C132.681 57.2067 132.193 57.6991 131.59 57.7018C130.987 57.7044 130.495 57.2163 130.492 56.6137C130.489 56.0111 130.977 55.5187 131.58 55.516C132.183 55.5134 132.675 56.0014 132.678 56.6041Z" fill="#2B6322"/>
<path d="M43.3256 51.3025C42.6857 51.3025 42.0765 50.9307 41.8035 50.3071C41.4363 49.4671 41.8192 48.4882 42.6592 48.121L53.587 43.3401C54.4267 42.9719 55.4055 43.3557 55.7734 44.1957C56.1406 45.0358 55.7578 46.0146 54.9178 46.3818L43.99 51.1628C43.7735 51.2574 43.5477 51.3025 43.3256 51.3025Z" fill="#56994C"/>
<path d="M50.8021 54.5715C50.1623 54.5715 49.5527 54.1996 49.2801 53.5761C48.9129 52.736 49.2957 51.7572 50.1358 51.39L61.0639 46.6091C61.9039 46.2412 62.8831 46.6243 63.2503 47.4647C63.6176 48.3047 63.2347 49.2836 62.3947 49.6508L51.4665 54.4317C51.2501 54.5267 51.0243 54.5715 50.8021 54.5715Z" fill="#56994C"/>
<path d="M58.2709 57.8407C57.6311 57.8407 57.0218 57.4688 56.7489 56.8453C56.3816 56.0052 56.7645 55.0264 57.6045 54.6592L68.5323 49.8782C69.3727 49.51 70.3509 49.8935 70.7187 50.7339C71.086 51.5739 70.7031 52.5528 69.8631 52.92L58.9353 57.7009C58.7188 57.7959 58.493 57.8407 58.2709 57.8407Z" fill="#56994C"/>
<path d="M122.503 18.3923C121.855 17.7442 120.804 17.7442 120.156 18.3923L119.114 19.4346C117.593 18.8283 115.79 19.1387 114.562 20.3669C112.917 22.0121 112.917 24.6887 114.562 26.3339C115.384 27.1563 116.465 27.5677 117.545 27.5677C118.626 27.5677 119.706 27.1563 120.528 26.3339C121.757 25.1054 122.067 23.3021 121.461 21.7824L122.503 20.7401C123.152 20.0917 123.152 19.0405 122.503 18.3923ZM118.181 23.9857C117.83 24.3367 117.26 24.336 116.909 23.9857C116.559 23.6354 116.559 23.065 116.909 22.7147C117.085 22.5394 117.315 22.4518 117.545 22.4518C117.775 22.4518 118.006 22.5394 118.181 22.7147C118.531 23.065 118.531 23.6354 118.181 23.9857Z" fill="#56994C"/>
<path d="M141.642 143.758C140.725 143.758 139.982 143.014 139.982 142.098C139.982 140.938 139.038 139.995 137.879 139.995C136.962 139.995 136.219 139.251 136.219 138.335C136.219 137.418 136.962 136.675 137.879 136.675C139.038 136.675 139.982 135.731 139.982 134.572C139.982 133.655 140.725 132.912 141.642 132.912C142.559 132.912 143.302 133.655 143.302 134.572C143.302 135.731 144.246 136.675 145.405 136.675C146.322 136.675 147.065 137.418 147.065 138.335C147.065 139.251 146.322 139.995 145.405 139.995C144.246 139.995 143.302 140.938 143.302 142.098C143.302 143.014 142.559 143.758 141.642 143.758Z" fill="#56994C"/>
<path d="M104.033 17.863C103.116 17.863 102.373 17.1196 102.373 16.2028C102.373 15.0434 101.429 14.1001 100.27 14.1001C99.3525 14.1001 98.6094 13.3567 98.6094 12.4399C98.6094 11.5232 99.3525 10.7798 100.27 10.7798C101.429 10.7798 102.373 9.83646 102.373 8.677C102.373 7.76026 103.116 7.01685 104.033 7.01685C104.95 7.01685 105.693 7.76026 105.693 8.677C105.693 9.83646 106.636 10.7798 107.796 10.7798C108.713 10.7798 109.456 11.5232 109.456 12.4399C109.456 13.3567 108.713 14.1001 107.796 14.1001C106.636 14.1001 105.693 15.0434 105.693 16.2028C105.693 17.1196 104.95 17.863 104.033 17.863Z" fill="#56994C"/>
<path d="M10.6653 84.7609C9.74818 84.7609 9.0051 84.0175 9.0051 83.1008C9.0051 81.9413 8.0618 80.998 6.90234 80.998C5.98527 80.998 5.24219 80.2546 5.24219 79.3379C5.24219 78.4211 5.98527 77.6777 6.90234 77.6777C8.0618 77.6777 9.0051 76.7344 9.0051 75.575C9.0051 74.6582 9.74818 73.9148 10.6653 73.9148C11.5823 73.9148 12.3254 74.6582 12.3254 75.575C12.3254 76.7344 13.269 77.6777 14.4285 77.6777C15.3456 77.6777 16.0887 78.4211 16.0887 79.3379C16.0887 80.2546 15.3456 80.998 14.4285 80.998C13.269 80.998 12.3254 81.9413 12.3254 83.1008C12.3254 84.0175 11.5823 84.7609 10.6653 84.7609Z" fill="#56994C"/>
<path d="M64.9546 158.672C64.0376 158.672 63.2945 157.929 63.2945 157.012C63.2945 155.853 62.3509 154.909 61.1914 154.909C60.2743 154.909 59.5312 154.166 59.5312 153.249C59.5312 152.332 60.2743 151.589 61.1914 151.589C62.3509 151.589 63.2945 150.646 63.2945 149.486C63.2945 148.57 64.0376 147.826 64.9546 147.826C65.8717 147.826 66.6148 148.57 66.6148 149.486C66.6148 150.646 67.5581 151.589 68.7176 151.589C69.6346 151.589 70.3777 152.332 70.3777 153.249C70.3777 154.166 69.6346 154.909 68.7176 154.909C67.5581 154.909 66.6148 155.853 66.6148 157.012C66.6148 157.929 65.8717 158.672 64.9546 158.672Z" fill="#56994C"/>
<defs>
<linearGradient id="paint0_linear_6665_2241" x1="74.0545" y1="-72.1679" x2="107.792" y2="327.823" gradientUnits="userSpaceOnUse">
<stop stop-color="#DCF1D9" stop-opacity="0.3"/>
<stop offset="1" stop-color="#DCF1D9"/>
</linearGradient>
</defs>
</svg>
