<svg width="170" height="170" viewBox="0 0 170 170" fill="none" xmlns="http://www.w3.org/2000/svg">
<g clip-path="url(#clip0_6665_2101)">
<path d="M170 85.0001C170 75.8257 165.848 67.2248 158.596 59.8198C153.549 54.6673 149.347 48.7648 146.14 42.3048C135.884 21.6468 118.398 8.04053 98.5482 8.04053C84.4425 8.04053 71.5312 14.9129 61.5589 26.3032C54.9581 33.8427 46.6238 39.626 37.325 43.36C14.8003 52.4052 0 67.679 0 85.0001C0 102.321 14.8003 117.595 37.325 126.64C46.6238 130.374 54.9581 136.157 61.5593 143.697C71.5315 155.087 84.4425 161.96 98.5482 161.96C118.398 161.96 135.884 148.353 146.14 127.695C149.347 121.235 153.549 115.333 158.596 110.18C165.848 102.775 170 94.1744 170 85.0001Z" fill="url(#paint0_linear_6665_2101)"/>
<path opacity="0.1" d="M86.0388 33.2651C51.9474 33.2651 24.3108 60.9018 24.3108 94.9931C24.3108 101.08 25.196 106.959 26.8376 112.514C20.9888 117.321 17.2578 124.61 17.2578 132.772C17.2578 147.248 28.9928 158.983 43.4687 158.983C50.5064 158.983 56.8914 156.204 61.5999 151.69C69.0949 154.925 77.3565 156.721 86.0388 156.721C120.13 156.721 147.767 129.084 147.767 94.9927C147.767 60.9014 120.13 33.2651 86.0388 33.2651Z" fill="#2B6322"/>
<path d="M129.659 131.662C153.762 107.559 153.762 68.481 129.659 44.3784C105.557 20.2758 66.4786 20.2758 42.376 44.3784C18.2734 68.481 18.2734 107.559 42.376 131.662C66.4786 155.764 105.557 155.764 129.659 131.662Z" fill="#56994C"/>
<path d="M121.608 45.8077L120.345 53.4082C120.286 53.7605 120.075 54.069 119.767 54.2506L112.782 58.3704L102.769 64.1484C102.585 64.2544 102.433 64.4064 102.327 64.5894L96.3469 74.9235C96.162 75.2433 96.1334 75.6298 96.2695 75.9731L98.3235 81.1557C98.3334 81.181 98.3444 81.2059 98.356 81.2305L100.041 84.7673C100.302 85.3141 100.117 85.9692 99.6094 86.2992L94.4055 89.682C94.0628 89.9048 93.856 90.2856 93.856 90.6943V95.3136C93.856 95.9086 93.4224 96.4149 92.8343 96.5065L89.5791 97.0139C89.2371 97.067 88.9346 97.2646 88.748 97.5558L85.2551 103.01C85.1259 103.212 84.9396 103.371 84.7198 103.467L79.3094 105.821C79.1842 105.875 79.0504 105.908 78.9142 105.918L69.0675 106.626C68.6827 106.654 68.3344 106.864 68.1299 107.191L63.1288 115.196C63.0289 115.356 62.8924 115.49 62.731 115.588L60.1176 117.173C59.7321 117.407 59.2484 117.407 58.8632 117.173L52.8571 113.516C52.6081 113.364 52.4225 113.128 52.3341 112.85L49.8877 105.149C49.7861 104.83 49.556 104.567 49.2529 104.423L43.5864 101.745C43.2508 101.586 43.0067 101.282 42.9247 100.92L42.1255 97.3934C42.0817 97.1995 42.0863 96.9976 42.1391 96.8057L44.7472 87.3425C44.8 87.1509 44.8047 86.9494 44.7608 86.7554L43.6631 81.8962C43.5921 81.5824 43.6495 81.2534 43.8222 80.9821L45.8771 77.7514C46.0003 77.5579 46.0657 77.3327 46.0657 77.1033V66.3203C46.0657 66.0002 46.1929 65.6931 46.419 65.4666L50.2526 61.6307C50.7238 61.1592 50.7238 60.3948 50.2523 59.9234L49.0523 58.7234C48.8259 58.4969 48.5188 58.3698 48.1984 58.3698H38.5588C38.4572 58.3698 38.356 58.3568 38.2573 58.3316L34.2833 57.3073C33.4937 57.1037 33.1271 56.1913 33.5574 55.4984C44.4454 37.9648 63.8742 26.2922 86.0323 26.2922C88.2938 26.2922 90.5274 26.4148 92.7254 26.6518C93.1083 26.6933 93.4476 26.9178 93.6405 27.2511L98.5702 35.7834C98.7096 36.0247 98.9284 36.2107 99.1894 36.309L120.842 44.4792C121.382 44.6831 121.702 45.2393 121.608 45.8077Z" fill="white"/>
<path d="M115.013 87.8458L111.716 89.738C111.116 90.0823 110.927 90.8596 111.303 91.441L114.001 95.6146C114.165 95.8687 114.419 96.0519 114.711 96.128L119.789 97.4465C120.259 97.5687 120.757 97.397 121.052 97.0115L127.207 88.9647C127.504 88.5763 127.538 88.047 127.292 87.6243L126.595 86.424C126.233 85.8011 125.41 85.6318 124.831 86.0611L124.532 86.2829C123.617 86.9619 122.357 86.1119 122.644 85.0092C122.797 84.4206 122.489 83.8099 121.924 83.5842L119.803 82.7358C119.278 82.526 118.677 82.7083 118.358 83.1748L115.408 87.4819C115.306 87.6306 115.171 87.7555 115.013 87.8458Z" fill="white"/>
<path d="M131.321 78.6533L134.658 77.5971C135.016 77.4839 135.406 77.5433 135.714 77.7581L138.719 79.8552C139.145 80.1524 139.332 80.6886 139.186 81.1867L138.514 83.4674C138.243 84.3888 137.056 84.6398 136.435 83.9073L134.896 82.0931C134.682 81.8418 134.376 81.6884 134.047 81.6688L132.019 81.5483C131.666 81.5273 131.34 81.3524 131.127 81.0701L130.721 80.5316C130.219 79.8669 130.526 78.905 131.321 78.6533Z" fill="white"/>
<path d="M76.7071 26.6576C76.7071 31.7769 70.1186 43.1752 66.3075 49.3397C65.0933 51.3037 62.2388 51.3037 61.0246 49.3397C57.2135 43.1749 50.625 31.7769 50.625 26.6576C50.625 19.4552 56.4638 13.6165 63.6662 13.6165C70.8686 13.6165 76.7071 19.4552 76.7071 26.6576Z" fill="white"/>
<path d="M63.4369 31.0261C66.0513 31.0261 68.1707 28.9068 68.1707 26.2924C68.1707 23.678 66.0513 21.5586 63.4369 21.5586C60.8225 21.5586 58.7031 23.678 58.7031 26.2924C58.7031 28.9068 60.8225 31.0261 63.4369 31.0261Z" fill="#56994C"/>
<path d="M108.598 99.6782C108.598 104.797 102.009 116.196 98.1981 122.36C96.9839 124.324 94.1294 124.324 92.9152 122.36C89.1041 116.195 82.5156 104.797 82.5156 99.6782C82.5156 92.4757 88.3544 86.637 95.5568 86.637C102.759 86.637 108.598 92.4757 108.598 99.6782Z" fill="white"/>
<path d="M95.3275 104.047C97.9419 104.047 100.061 101.927 100.061 99.3129C100.061 96.6985 97.9419 94.5791 95.3275 94.5791C92.7131 94.5791 90.5938 96.6985 90.5938 99.3129C90.5938 101.927 92.7131 104.047 95.3275 104.047Z" fill="#56994C"/>
<path d="M43.4612 152.011C57.9373 152.011 69.6724 140.275 69.6724 125.799C69.6724 111.323 57.9373 99.5881 43.4612 99.5881C28.9852 99.5881 17.25 111.323 17.25 125.799C17.25 140.275 28.9852 152.011 43.4612 152.011Z" fill="white"/>
<path d="M38.947 131.212C38.2461 131.212 37.595 130.765 37.3676 130.062L32.7092 115.652H29.2305C28.3137 115.652 27.5703 114.909 27.5703 113.992C27.5703 113.075 28.3137 112.332 29.2305 112.332H33.9171C34.6373 112.332 35.2751 112.796 35.4969 113.482L40.5268 129.041C40.8091 129.913 40.3303 130.849 39.458 131.132C39.2884 131.186 39.116 131.212 38.947 131.212Z" fill="#2B6322"/>
<path d="M53.7052 131.212H36.418C35.5012 131.212 34.7578 130.468 34.7578 129.552C34.7578 128.635 35.5012 127.891 36.418 127.891H52.3153L53.7158 120.046H36.418C35.5012 120.046 34.7578 119.303 34.7578 118.386C34.7578 117.469 35.5012 116.726 36.418 116.726H55.6984C56.1898 116.726 56.6559 116.943 56.971 117.32C57.2865 117.697 57.4189 118.194 57.3326 118.678L55.3394 129.843C55.1983 130.635 54.5094 131.212 53.7052 131.212Z" fill="#2B6322"/>
<path d="M39.9222 141.259C37.5611 141.259 35.6406 139.338 35.6406 136.977C35.6406 134.616 37.5614 132.696 39.9222 132.696C42.2829 132.696 44.2037 134.616 44.2037 136.977C44.2037 139.338 42.2832 141.259 39.9222 141.259ZM39.9222 136.016C39.3919 136.016 38.9609 136.447 38.9609 136.977C38.9609 137.507 39.3922 137.939 39.9222 137.939C40.4521 137.939 40.8834 137.507 40.8834 136.977C40.8834 136.447 40.4524 136.016 39.9222 136.016Z" fill="#2B6322"/>
<path d="M52.1409 141.259C49.7802 141.259 47.8594 139.338 47.8594 136.977C47.8594 134.616 49.7802 132.696 52.1409 132.696C54.502 132.696 56.4228 134.616 56.4228 136.977C56.4228 139.338 54.502 141.259 52.1409 141.259ZM52.1409 136.016C51.611 136.016 51.1797 136.447 51.1797 136.977C51.1797 137.507 51.611 137.939 52.1409 137.939C52.6712 137.939 53.1025 137.507 53.1025 136.977C53.1025 136.447 52.6712 136.016 52.1409 136.016Z" fill="#2B6322"/>
<path d="M149.422 88.0205C149.422 87.1037 148.679 86.3603 147.762 86.3603C147.749 86.3603 147.738 86.3637 147.725 86.364C147.598 86.363 147.47 86.3723 147.34 86.4018C139.852 88.1068 132.127 89.4764 124.204 90.516C124.224 89.6866 124.236 88.8552 124.236 88.0205C124.236 71.2393 120.353 55.4376 113.302 43.5266C112.503 42.1776 111.673 40.8999 110.816 39.6867C113.417 38.9506 115.807 38.0926 117.929 37.1218C120.366 38.6481 122.702 40.3518 124.913 42.2304C135.624 51.334 142.835 63.931 145.219 77.701C145.375 78.6041 146.235 79.209 147.138 79.0537C148.042 78.8973 148.647 78.038 148.491 77.1345C145.975 62.6005 138.365 49.3063 127.063 39.7003C115.631 29.9834 101.06 24.6324 86.0342 24.6324C83.4095 24.6324 80.8226 24.7961 78.2812 25.1085C77.5043 17.7278 71.2452 11.9568 63.6623 11.9568C55.5557 11.9568 48.9609 18.5516 48.9609 26.6581C48.9609 28.7639 49.8996 31.7173 51.3366 35.0064C34.0736 46.3436 22.6464 65.8694 22.6464 88.0208C22.6464 90.3115 22.7743 92.646 23.0259 94.9589C23.1186 95.8093 23.8381 96.4395 24.6741 96.4395C24.7342 96.4395 24.795 96.4362 24.8558 96.4295C25.7675 96.3302 26.4259 95.5108 26.3267 94.5994C26.163 93.0963 26.0587 91.5845 26.0069 90.0831C33.1429 91.6439 40.4808 92.913 47.9944 93.8852C48.077 95.3899 48.1919 96.8831 48.337 98.3639C46.7536 98.0834 45.1273 97.9286 43.4648 97.9286C28.0964 97.9286 15.5938 110.432 15.5938 125.8C15.5938 141.168 28.0967 153.671 43.4648 153.671C50.5351 153.671 56.9944 151.02 61.9134 146.666C69.4867 149.789 77.6308 151.409 86.0348 151.409C97.9558 151.409 109.118 148.099 118.653 142.353C118.833 142.282 119 142.181 119.147 142.052C137.294 130.888 149.422 110.845 149.422 88.0205ZM146.062 90.0871C145.364 110.647 134.284 128.616 117.91 138.91C115.793 137.942 113.41 137.087 110.816 136.353C111.673 135.14 112.503 133.863 113.302 132.514C119.525 122.001 123.279 108.456 124.075 93.8822C131.588 92.9126 138.927 91.6473 146.062 90.0871ZM68.4588 138.114C73.3679 137.211 78.7936 136.682 84.3744 136.594V148.018C78.4848 147.538 72.8393 144.509 67.8708 139.241C68.075 138.87 68.2705 138.495 68.4588 138.114ZM51.153 88.0205C51.153 73.8361 54.0138 60.4231 59.2592 49.6453C59.3761 49.8356 59.4929 50.0258 59.6085 50.2131C60.4834 51.6282 61.9988 52.4732 63.6619 52.4732C65.3251 52.4732 66.8405 51.6285 67.7157 50.2131C69.3051 47.6418 70.9938 44.791 72.5474 41.9362C76.3103 42.422 80.2831 42.7065 84.374 42.767V90.1461C83.6489 90.9952 83.0197 91.9268 82.5007 92.9259C71.799 92.8057 61.3407 92.1403 51.1958 90.9347C51.1682 89.9669 51.153 88.9957 51.153 88.0205ZM87.6943 28.0211C93.8983 28.5265 99.8317 31.8601 104.988 37.659C99.7258 38.7251 93.8031 39.3497 87.6943 39.446V28.0211ZM77.9283 29.6032C80.0284 28.735 82.1843 28.2077 84.374 28.0284V39.447C80.8937 39.3919 77.4761 39.1624 74.2036 38.7803C75.8913 35.4304 77.2639 32.219 77.9283 29.6032ZM95.5529 88.2971C101.828 88.2971 106.934 93.4027 106.934 99.6781C106.934 103.102 103.234 111.052 96.7824 121.487C96.3995 122.106 95.7952 122.173 95.5529 122.173C95.3108 122.173 94.7062 122.106 94.3237 121.487C87.8723 111.052 84.1721 103.102 84.1721 99.6781C84.1718 93.4027 89.2771 88.2971 95.5529 88.2971ZM87.6943 136.594C93.8031 136.69 99.7262 137.315 104.99 138.381C99.8327 144.181 93.899 147.514 87.6943 148.02V136.594ZM87.6943 133.273V116.81C88.9484 119.035 90.2543 121.219 91.4991 123.233C92.374 124.649 93.8894 125.494 95.5525 125.494C97.2157 125.494 98.7311 124.649 99.6063 123.233C104.464 115.376 110.254 104.912 110.254 99.6784C110.254 98.1787 110.027 96.731 109.607 95.3667C113.351 95.0778 117.059 94.7196 120.726 94.2916C119.894 108.11 116.317 120.902 110.444 130.823C109.459 132.486 108.427 134.036 107.355 135.472C101.483 134.141 94.7586 133.377 87.6943 133.273ZM110.444 45.218C117.197 56.6246 120.916 71.8257 120.916 88.0205C120.916 88.995 120.901 89.9659 120.875 90.9327C116.692 91.4291 112.456 91.8335 108.172 92.147C105.602 87.8565 100.908 84.9771 95.5525 84.9771C92.6635 84.9771 89.9691 85.8181 87.6943 87.2631V42.767C94.7583 42.663 101.482 41.8994 107.354 40.5673C108.427 42.0043 109.459 43.5539 110.444 45.218ZM114.319 35.0303C112.58 35.6954 110.675 36.2943 108.637 36.8213C106.408 34.1053 104.022 31.8172 101.514 29.9848C105.959 31.1704 110.257 32.8638 114.319 35.0303ZM63.6623 15.2768C69.9376 15.2768 75.0433 20.3821 75.0433 26.6578C75.0433 30.0817 71.3431 38.0305 64.8918 48.4669C64.5093 49.0858 63.9046 49.1526 63.6623 49.1526C63.4202 49.1526 62.8156 49.0858 62.4331 48.4669C55.9814 38.0309 52.2812 30.0817 52.2812 26.6578C52.2809 20.3824 57.3865 15.2768 63.6623 15.2768ZM25.9883 86.6787C26.4352 66.4129 36.9659 48.5931 52.7537 38.0448C54.0908 40.7588 55.6553 43.5854 57.2351 46.2769C51.1573 57.8189 47.8327 72.4994 47.8327 88.0205C47.8327 88.8552 47.8443 89.6873 47.8635 90.5167C40.3842 89.5336 33.0828 88.2536 25.9883 86.6787ZM51.3462 94.2965C61.0588 95.4321 71.0513 96.0789 81.2632 96.2326C80.9966 97.3386 80.8515 98.4914 80.8515 99.6784C80.8515 102.303 82.3088 106.245 84.374 110.514V133.276C79.3268 133.35 74.4579 133.763 69.9446 134.479C70.8428 131.745 71.3355 128.83 71.3355 125.8C71.3355 113.322 63.0925 102.733 51.7662 99.1917C51.5889 97.5757 51.4472 95.9437 51.3462 94.2965ZM18.9134 125.799C18.9134 112.262 29.9269 101.248 43.4641 101.248C57.0014 101.248 68.0152 112.262 68.0152 125.799C68.0152 139.337 57.0014 150.35 43.4641 150.35C29.9269 150.35 18.9134 139.337 18.9134 125.799ZM64.4541 144.105C65.01 143.469 65.5376 142.808 66.0343 142.123C67.5065 143.623 69.0352 144.951 70.612 146.098C68.5232 145.546 66.4683 144.882 64.4541 144.105ZM108.638 139.218C110.672 139.743 112.575 140.34 114.31 141.003C110.29 143.158 105.998 144.867 101.5 146.066C104.014 144.231 106.405 141.939 108.638 139.218Z" fill="#2B6322"/>
<path d="M11.1213 98.0873C10.6963 98.0873 10.2717 97.9253 9.94728 97.6012C9.29882 96.9528 9.29882 95.9016 9.94728 95.2534L13.2676 91.9331C13.9161 91.285 14.9669 91.285 15.6154 91.9331C16.2638 92.5816 16.2638 93.6328 15.6154 94.2809L12.2951 97.6012C11.971 97.9253 11.5463 98.0873 11.1213 98.0873Z" fill="#56994C"/>
<path d="M155.551 91.7917C155.126 91.7917 154.701 91.6296 154.377 91.3056C153.729 90.6571 153.729 89.6059 154.377 88.9578L157.697 85.6375C158.346 84.9893 159.397 84.9893 160.045 85.6375C160.694 86.2859 160.694 87.3371 160.045 87.9853L156.725 91.3056C156.401 91.6296 155.976 91.7917 155.551 91.7917Z" fill="#56994C"/>
<path d="M35.762 27.4975C35.337 27.4975 34.9123 27.3354 34.5879 27.0114C33.9394 26.3629 33.9394 25.3117 34.5879 24.6636L37.9082 21.3433C38.5567 20.6951 39.6076 20.6951 40.256 21.3433C40.9045 21.9917 40.9045 23.0429 40.256 23.6911L36.9357 27.0114C36.6116 27.3354 36.1866 27.4975 35.762 27.4975Z" fill="#56994C"/>
<path d="M106.473 15.9972C106.048 15.9972 105.623 15.8352 105.299 15.5111L103.152 13.3649L101.006 15.5111C100.358 16.1593 99.3067 16.1593 98.6582 15.5111C98.0098 14.8627 98.0098 13.8115 98.6582 13.1633L101.979 9.84303C102.627 9.1949 103.678 9.1949 104.326 9.84303L107.647 13.1633C108.295 13.8118 108.295 14.863 107.647 15.5111C107.322 15.8352 106.898 15.9972 106.473 15.9972Z" fill="#56994C"/>
<path d="M134.027 150.963C133.602 150.963 133.178 150.801 132.853 150.477L130.707 148.331L128.561 150.477C127.912 151.125 126.861 151.125 126.213 150.477C125.564 149.829 125.564 148.778 126.213 148.129L129.533 144.809C130.182 144.161 131.233 144.161 131.881 144.809L135.201 148.129C135.85 148.778 135.85 149.829 135.201 150.477C134.877 150.801 134.452 150.963 134.027 150.963Z" fill="#56994C"/>
</g>
<defs>
<linearGradient id="paint0_linear_6665_2101" x1="74.0546" y1="-57.8132" x2="101.945" y2="306.093" gradientUnits="userSpaceOnUse">
<stop stop-color="#DCF1D9" stop-opacity="0.3"/>
<stop offset="1" stop-color="#DCF1D9"/>
</linearGradient>
<clipPath id="clip0_6665_2101">
<rect width="170" height="170" fill="white"/>
</clipPath>
</defs>
</svg>
