<svg width="273" height="69" viewBox="0 0 273 69" fill="none" xmlns="http://www.w3.org/2000/svg">
<path d="M0 30.3634C0 23.4833 0.762328 18.0247 2.28698 13.9876C3.86811 9.95056 6.55037 7.05068 10.3338 5.28801C14.1736 3.52534 19.5099 2.64401 26.3427 2.64401C31.4813 2.64401 35.7447 3.12732 39.1328 4.09394C42.5209 5.06057 45.2032 6.62423 47.1796 8.78492C49.156 10.9456 50.5395 13.8171 51.3301 17.3993C52.1771 20.9246 52.6006 25.246 52.6006 30.3634C52.6006 35.5946 52.1771 40.0012 51.3301 43.5834C50.483 47.1088 49.0713 49.9518 47.0949 52.1125C45.1185 54.2732 42.3798 55.8368 38.8787 56.8035V57.2299C40.5728 59.1063 42.0974 61.0396 43.4527 63.0297C44.8644 65.0198 46.0785 66.9246 47.0949 68.7441V69H31.679L25.665 58.1681C19.0017 58.1112 13.8066 57.2015 10.0797 55.4388C6.35273 53.6193 3.72694 50.691 2.20228 46.6539C0.734093 42.6168 0 37.1866 0 30.3634ZM26.3427 46.2274C29.9567 46.2274 32.6672 45.7726 34.4742 44.8628C36.2812 43.953 37.4952 42.3609 38.1164 40.0865C38.7375 37.7553 39.0481 34.5142 39.0481 30.3634C39.0481 26.2695 38.7375 23.0853 38.1164 20.8109C37.4952 18.5365 36.2812 16.9444 34.4742 16.0346C32.6672 15.068 29.9567 14.5847 26.3427 14.5847C22.7851 14.5847 20.0746 15.068 18.2112 16.0346C16.4042 16.9444 15.1618 18.5365 14.4842 20.8109C13.8631 23.0853 13.5525 26.2695 13.5525 30.3634C13.5525 34.5142 13.8631 37.7553 14.4842 40.0865C15.1618 42.3609 16.4042 43.953 18.2112 44.8628C20.0746 45.7726 22.7851 46.2274 26.3427 46.2274Z" fill="white"/>
<path d="M74.638 58.1681C69.4428 58.1681 65.7441 56.775 63.5419 53.9889C61.3396 51.2027 60.2384 47.2225 60.2384 42.0482V15.864H73.7909L73.8756 38.7219C73.8756 41.2806 74.3274 43.1001 75.2309 44.1805C76.1344 45.204 77.9696 45.7157 80.7366 45.7157C83.3906 45.7157 85.1694 45.2608 86.0729 44.351C87.0329 43.3844 87.5411 41.7639 87.5975 39.4895V15.864H101.15V57.4005H88.2752L87.5975 52.7095H87.3434C86.6093 54.3585 85.1129 55.6947 82.8542 56.7182C80.5954 57.6848 77.8567 58.1681 74.638 58.1681Z" fill="white"/>
<path d="M162.541 15.4376C166.719 15.4376 170.023 16.8307 172.451 19.6168C174.935 22.403 176.178 27.2361 176.178 34.1162V57.4005H162.625L162.541 35.822C162.541 33.0358 162.117 31.0173 161.27 29.7664C160.479 28.5155 158.898 27.89 156.527 27.89C154.155 27.89 152.546 28.5155 151.699 29.7664C150.908 31.0173 150.513 33.0358 150.513 35.822V57.4005H136.96L136.876 35.822C136.876 33.0358 136.452 31.0173 135.605 29.7664C134.814 28.5155 133.233 27.89 130.862 27.89C128.49 27.89 126.881 28.5155 126.034 29.7664C125.243 31.0173 124.848 33.0358 124.848 35.822V57.4005H111.295V15.864H124.17L124.848 23.4549H125.102C125.836 20.953 127.106 18.9913 128.913 17.5698C130.777 16.1483 133.403 15.4376 136.791 15.4376C140.179 15.4376 142.833 16.1483 144.753 17.5698C146.729 18.9913 148 20.953 148.565 23.4549H148.819C149.553 20.8962 150.964 18.9345 153.054 17.5698C155.2 16.1483 158.362 15.4376 162.541 15.4376Z" fill="white"/>
<path d="M227.336 34.7985C227.336 42.4747 225.784 48.3028 222.678 52.2831C219.572 56.2064 214.292 58.1681 206.838 58.1681C202.66 58.1681 198.763 58.026 195.149 57.7417C191.592 57.4005 188.458 57.0025 185.747 56.5476L185.493 56.377V0H199.046V22.2608H199.384C200.175 20.2138 201.474 18.5649 203.281 17.314C205.144 16.063 207.77 15.4376 211.158 15.4376C221.944 15.4376 227.336 21.8912 227.336 34.7985ZM199.046 36.2485V46.2274C200.401 46.4549 201.982 46.5686 203.789 46.5686C206.443 46.5686 208.504 46.3412 209.972 45.8863C211.497 45.3745 212.57 44.4079 213.191 42.9864C213.812 41.5649 214.123 39.5179 214.123 36.8455C214.123 33.4907 213.643 31.0173 212.683 29.4252C211.723 27.8331 209.746 27.0371 206.754 27.0371C204.495 27.0371 202.631 27.7478 201.163 29.1693C199.751 30.534 199.046 32.8937 199.046 36.2485Z" fill="white"/>
<path d="M250.215 15.4376C255.636 15.4376 260.012 16.0062 263.344 17.1434C266.676 18.2806 269.104 20.3844 270.628 23.4549C272.209 26.4685 273 30.8467 273 36.5896V57.4005H260.718L260.295 53.4771H260.04C258.968 54.8986 257.302 56.0358 255.043 56.8887C252.784 57.7417 249.848 58.1681 246.234 58.1681C236.465 58.1681 231.58 53.5624 231.58 44.351C231.58 40.4277 232.851 37.3572 235.392 35.1397C237.989 32.8653 242.055 31.7281 247.589 31.7281H260.125C259.73 29.3399 258.713 27.7478 257.076 26.9518C255.438 26.0989 252.643 25.6724 248.69 25.6724C246.206 25.6724 243.749 25.8714 241.321 26.2695C238.949 26.6106 236.86 27.0086 235.053 27.4635L234.799 27.293L234.884 17.3993C236.013 17.0581 237.453 16.7454 239.203 16.4611C240.954 16.1199 242.789 15.864 244.709 15.6934C246.686 15.5229 248.521 15.4376 250.215 15.4376ZM249.707 48.1038C253.208 48.1038 255.834 47.6774 257.584 46.8245C259.335 45.9147 260.238 44.4932 260.295 42.56V40.4277H250.723C248.238 40.4277 246.488 40.7973 245.471 41.5365C244.512 42.2188 244.032 43.157 244.032 44.351C244.032 45.7726 244.54 46.7676 245.556 47.3362C246.573 47.848 247.956 48.1038 249.707 48.1038Z" fill="white"/>
</svg>
