<svg width="170" height="170" viewBox="0 0 170 170" fill="none" xmlns="http://www.w3.org/2000/svg">
<g clip-path="url(#clip0_6665_2021)">
<path d="M162.486 112.719C150.721 95.4211 125.237 87.0772 120.754 65.2866C117.324 48.6094 122.67 29.3997 112.571 14.4151C100.429 -3.60188 80.8088 -0.140458 68.0266 15.3491C52.2774 34.4343 37.4761 7.48198 18.8578 7.48198C9.2335 7.48198 1.22225 14.8185 0.0966636 22.8255C-0.444547 26.6751 1.36801 28.9455 3.50895 31.2222C27.7957 57.0516 10.1619 93.9386 23.3837 121.754C38.6173 153.802 73.2621 121.531 97.1786 125.903C120.457 130.157 128.605 171.42 153.342 167.471C174.389 164.11 173.165 128.423 162.486 112.719Z" fill="url(#paint0_linear_6665_2021)"/>
<path opacity="0.1" d="M153.32 56.3011H148.892V39.2463C148.892 37.4135 147.405 35.926 145.572 35.926H81.254V26.6523C81.254 24.8195 79.7665 23.332 77.9337 23.332H25.9641C24.1313 23.332 22.6438 24.8195 22.6438 26.6523V35.926H16.6875C14.8547 35.926 13.3672 37.4135 13.3672 39.2463V124.343C13.3672 126.175 14.8547 127.663 16.6875 127.663H22.6438V134.28C22.6438 136.113 24.1313 137.601 25.9641 137.601H61.3175V147.235H55.9017C54.8014 147.235 53.9095 148.127 53.9095 149.227V152.645C53.9095 153.746 54.8014 154.637 55.9017 154.637H106.353C107.453 154.637 108.345 153.746 108.345 152.645V149.227C108.345 148.127 107.453 147.235 106.353 147.235H100.939V127.663H145.572C147.405 127.663 148.892 126.175 148.892 124.343V104.632H153.32C155.153 104.632 156.64 103.144 156.64 101.311V59.6214C156.641 57.7886 155.153 56.3011 153.32 56.3011Z" fill="#2B6322"/>
<path d="M148.885 42.467L148.881 104.63L147.221 106.29H15.0195L13.3594 104.63V42.467L15.0195 40.8069H147.221L148.885 42.467Z" fill="#56994C"/>
<path d="M148.885 42.4687V31.2776C148.885 29.4448 147.397 27.9573 145.564 27.9573H16.6797C14.8469 27.9573 13.3594 29.4448 13.3594 31.2776V42.4684H148.885V42.4687Z" fill="white"/>
<path d="M148.885 104.63V116.374C148.885 118.207 147.397 119.694 145.564 119.694H16.6797C14.8469 119.694 13.3594 118.207 13.3594 116.374V104.63H148.885Z" fill="white"/>
<path d="M61.3125 119.694H100.934V139.264H61.3125V119.694Z" fill="#56994C"/>
<path d="M106.349 146.669H55.8984C54.7981 146.669 53.9062 145.777 53.9062 144.677V141.258C53.9062 140.158 54.7981 139.266 55.8984 139.266H106.349C107.45 139.266 108.341 140.158 108.341 141.258V144.677C108.341 145.777 107.45 146.669 106.349 146.669Z" fill="white"/>
<path d="M81.2508 26.6521V60.3732C81.2508 62.207 79.7643 63.6935 77.9305 63.6935H25.9609C24.1271 63.6935 22.6406 62.207 22.6406 60.3732V18.6833C22.6406 16.8495 24.1271 15.363 25.9609 15.363H37.0773L81.2508 26.6521Z" fill="#56994C"/>
<path d="M81.2516 18.6833V26.4695H50.0967C49.1604 26.4695 48.2672 26.074 47.638 25.3804L39.5352 16.4521C38.9076 15.7582 38.0145 15.363 37.0781 15.363H77.9312C79.7651 15.363 81.2516 16.8499 81.2516 18.6833Z" fill="white"/>
<path d="M60.2461 23.5273C61.163 23.5273 61.9062 22.7841 61.9062 21.8672C61.9062 20.9503 61.163 20.207 60.2461 20.207C59.3292 20.207 58.5859 20.9503 58.5859 21.8672C58.5859 22.7841 59.3292 23.5273 60.2461 23.5273Z" fill="#56994C"/>
<path d="M65.5039 23.5273C66.4208 23.5273 67.1641 22.7841 67.1641 21.8672C67.1641 20.9503 66.4208 20.207 65.5039 20.207C64.587 20.207 63.8438 20.9503 63.8438 21.8672C63.8438 22.7841 64.587 23.5273 65.5039 23.5273Z" fill="#56994C"/>
<path d="M70.7617 23.5273C71.6786 23.5273 72.4219 22.7841 72.4219 21.8672C72.4219 20.9503 71.6786 20.207 70.7617 20.207C69.8448 20.207 69.1016 20.9503 69.1016 21.8672C69.1016 22.7841 69.8448 23.5273 70.7617 23.5273Z" fill="#56994C"/>
<path d="M50.8923 56.7323H32.2617C31.345 56.7323 30.6016 55.9888 30.6016 55.0721V45.6421C30.6016 44.7254 31.345 43.9819 32.2617 43.9819H50.8923C51.8091 43.9819 52.5525 44.7254 52.5525 45.6421V55.0721C52.5525 55.9892 51.8094 56.7323 50.8923 56.7323Z" fill="white"/>
<path d="M38.6461 46.8397H36.3086C35.3919 46.8397 34.6484 46.0963 34.6484 45.1795V42.842C34.6484 41.9253 35.3919 41.1819 36.3086 41.1819H38.6461C39.5628 41.1819 40.3062 41.9253 40.3062 42.842V45.1795C40.3062 46.0963 39.5632 46.8397 38.6461 46.8397Z" fill="#2B6322"/>
<path d="M34.6484 51.6245C34.6484 52.5412 35.3919 53.2847 36.3086 53.2847H46.9107C47.8274 53.2847 48.5708 52.5412 48.5708 51.6245C48.5708 50.7078 47.8274 49.9644 46.9107 49.9644H36.3086C35.3919 49.9644 34.6484 50.7074 34.6484 51.6245Z" fill="#56994C"/>
<path d="M72.797 53.8984L70.1546 51.2561C71.257 49.152 70.9253 46.4868 69.1592 44.7207C66.9844 42.5462 63.4463 42.5462 61.2715 44.7207C59.097 46.8952 59.097 50.434 61.2715 52.6084C62.3589 53.6955 63.7869 54.2394 65.2153 54.2394C66.1068 54.2394 66.998 54.0275 67.8069 53.6039L70.4492 56.2462C70.7736 56.5702 71.1982 56.7323 71.6232 56.7323C72.0482 56.7323 72.4729 56.5702 72.7973 56.2462C73.4454 55.5977 73.4454 54.5465 72.797 53.8984ZM63.6196 50.2606C62.7397 49.3808 62.7397 47.9487 63.6196 47.0688C64.0595 46.6289 64.6376 46.4087 65.2157 46.4087C65.7937 46.4087 66.3715 46.6289 66.8118 47.0688C67.6916 47.9487 67.6916 49.3808 66.8118 50.2606C65.9319 51.1405 64.4998 51.1405 63.6196 50.2606Z" fill="white"/>
<path d="M81.2508 92.408V126.312C81.2508 128.145 79.7643 129.632 77.9305 129.632H25.9609C24.1271 129.632 22.6406 128.145 22.6406 126.312V84.6218C22.6406 82.788 24.1271 81.3015 25.9609 81.3015H37.0773L81.2508 92.408Z" fill="#56994C"/>
<path d="M81.2516 84.6218V92.408H50.0967C49.1604 92.408 48.2672 92.0125 47.638 91.3189L39.5352 82.3906C38.9076 81.6966 38.0145 81.3015 37.0781 81.3015H77.9312C79.7651 81.3015 81.2516 82.788 81.2516 84.6218Z" fill="white"/>
<path d="M60.2461 89.4658C61.163 89.4658 61.9062 88.7225 61.9062 87.8057C61.9062 86.8888 61.163 86.1455 60.2461 86.1455C59.3292 86.1455 58.5859 86.8888 58.5859 87.8057C58.5859 88.7225 59.3292 89.4658 60.2461 89.4658Z" fill="#56994C"/>
<path d="M65.5039 89.4658C66.4208 89.4658 67.1641 88.7225 67.1641 87.8057C67.1641 86.8888 66.4208 86.1455 65.5039 86.1455C64.587 86.1455 63.8438 86.8888 63.8438 87.8057C63.8438 88.7225 64.587 89.4658 65.5039 89.4658Z" fill="#56994C"/>
<path d="M70.7617 89.4658C71.6786 89.4658 72.4219 88.7225 72.4219 87.8057C72.4219 86.8888 71.6786 86.1455 70.7617 86.1455C69.8448 86.1455 69.1016 86.8888 69.1016 87.8057C69.1016 88.7225 69.8448 89.4658 70.7617 89.4658Z" fill="#56994C"/>
<path d="M50.8923 122.671H32.2617C31.345 122.671 30.6016 121.927 30.6016 121.01V111.58C30.6016 110.664 31.345 109.92 32.2617 109.92H50.8923C51.8091 109.92 52.5525 110.664 52.5525 111.58V121.01C52.5525 121.927 51.8094 122.671 50.8923 122.671Z" fill="white"/>
<path d="M38.6461 112.778H36.3086C35.3919 112.778 34.6484 112.034 34.6484 111.118V108.78C34.6484 107.863 35.3919 107.12 36.3086 107.12H38.6461C39.5628 107.12 40.3062 107.863 40.3062 108.78V111.118C40.3062 112.035 39.5632 112.778 38.6461 112.778Z" fill="#2B6322"/>
<path d="M34.6484 117.562C34.6484 118.479 35.3919 119.223 36.3086 119.223H46.9107C47.8274 119.223 48.5708 118.479 48.5708 117.562C48.5708 116.646 47.8274 115.902 46.9107 115.902H36.3086C35.3919 115.902 34.6484 116.646 34.6484 117.562Z" fill="#56994C"/>
<path d="M72.797 119.836L70.1546 117.194C71.257 115.09 70.9253 112.425 69.1592 110.659C66.9844 108.484 63.4463 108.484 61.2715 110.659C59.097 112.833 59.097 116.372 61.2715 118.546C62.3589 119.633 63.7869 120.177 65.2153 120.177C66.1068 120.177 66.998 119.966 67.8069 119.542L70.4492 122.184C70.7736 122.508 71.1982 122.67 71.6232 122.67C72.0482 122.67 72.4729 122.508 72.7973 122.184C73.4454 121.536 73.4454 120.485 72.797 119.836ZM63.6196 116.199C62.7397 115.319 62.7397 113.887 63.6196 113.007C64.0595 112.567 64.6376 112.347 65.2157 112.347C65.7937 112.347 66.3715 112.567 66.8118 113.007C67.6916 113.887 67.6916 115.319 66.8118 116.199C65.9319 117.079 64.4998 117.079 63.6196 116.199Z" fill="white"/>
<path d="M156.634 59.6216V93.3427C156.634 95.1765 155.147 96.663 153.313 96.663H101.344C99.5099 96.663 98.0234 95.1765 98.0234 93.3427V51.6528C98.0234 49.819 99.5099 48.3325 101.344 48.3325H112.46L156.634 59.6216Z" fill="white"/>
<path d="M156.634 51.6528V59.439H125.48C124.543 59.439 123.65 59.0435 123.021 58.3499L114.918 49.4216C114.29 48.7276 113.397 48.3325 112.461 48.3325H153.314C155.148 48.3325 156.634 49.819 156.634 51.6528Z" fill="#56994C"/>
<path d="M135.629 56.4968C136.546 56.4968 137.289 55.7535 137.289 54.8367C137.289 53.9198 136.546 53.1765 135.629 53.1765C134.712 53.1765 133.969 53.9198 133.969 54.8367C133.969 55.7535 134.712 56.4968 135.629 56.4968Z" fill="white"/>
<path d="M140.887 56.4968C141.804 56.4968 142.547 55.7535 142.547 54.8367C142.547 53.9198 141.804 53.1765 140.887 53.1765C139.97 53.1765 139.227 53.9198 139.227 54.8367C139.227 55.7535 139.97 56.4968 140.887 56.4968Z" fill="white"/>
<path d="M146.145 56.4968C147.061 56.4968 147.805 55.7535 147.805 54.8367C147.805 53.9198 147.061 53.1765 146.145 53.1765C145.228 53.1765 144.484 53.9198 144.484 54.8367C144.484 55.7535 145.228 56.4968 146.145 56.4968Z" fill="white"/>
<path d="M126.275 89.7013H107.645C106.728 89.7013 105.984 88.9578 105.984 88.0411V78.6111C105.984 77.6943 106.728 76.9509 107.645 76.9509H126.275C127.192 76.9509 127.935 77.6943 127.935 78.6111V88.0411C127.935 88.9582 127.192 89.7013 126.275 89.7013Z" fill="#56994C"/>
<path d="M114.029 79.8087H111.691C110.775 79.8087 110.031 79.0653 110.031 78.1485V75.811C110.031 74.8943 110.775 74.1509 111.691 74.1509H114.029C114.946 74.1509 115.689 74.8943 115.689 75.811V78.1485C115.689 79.0656 114.946 79.8087 114.029 79.8087Z" fill="#2B6322"/>
<path d="M110.031 84.5935C110.031 85.5102 110.775 86.2537 111.691 86.2537H122.293C123.21 86.2537 123.954 85.5102 123.954 84.5935C123.954 83.6768 123.21 82.9333 122.293 82.9333H111.691C110.775 82.9333 110.031 83.6768 110.031 84.5935Z" fill="white"/>
<path d="M148.18 86.8674L145.537 84.2251C146.64 82.121 146.308 79.4558 144.542 77.6897C142.367 75.5152 138.829 75.5152 136.654 77.6897C134.48 79.8642 134.48 83.403 136.654 85.5774C137.742 86.6645 139.17 87.2084 140.598 87.2084C141.49 87.2084 142.381 86.9965 143.19 86.5729L145.832 89.2152C146.156 89.5392 146.581 89.7013 147.006 89.7013C147.431 89.7013 147.856 89.5392 148.18 89.2152C148.828 88.5667 148.828 87.5155 148.18 86.8674ZM139.002 83.2296C138.123 82.3498 138.123 80.9177 139.002 80.0378C139.442 79.5979 140.02 79.3777 140.598 79.3777C141.177 79.3777 141.754 79.5979 142.195 80.0378C143.074 80.9177 143.074 82.3498 142.195 83.2296C141.315 84.1095 139.882 84.1099 139.002 83.2296Z" fill="#56994C"/>
<path d="M153.315 46.6718H150.545V31.2775C150.545 28.5313 148.311 26.2971 145.565 26.2971H90.7465C89.8294 26.2971 89.0863 27.0405 89.0863 27.9572C89.0863 28.874 89.8294 29.6174 90.7465 29.6174H145.565C146.48 29.6174 147.225 30.3621 147.225 31.2775V46.6718H101.347C98.6003 46.6718 96.3661 48.9061 96.3661 51.6523V70.8371H52.8225V65.3523H77.9287C80.675 65.3523 82.9092 63.118 82.9092 60.3718V18.6836C82.9092 15.9374 80.675 13.7031 77.9287 13.7031H25.9599C23.2137 13.7031 20.9794 15.9374 20.9794 18.6836V26.2971H16.6836C13.9374 26.2971 11.7031 28.5313 11.7031 31.2775V116.374C11.7031 119.12 13.9374 121.354 16.6836 121.354H20.9794V126.31C20.9794 129.056 23.2137 131.291 25.9599 131.291H59.6534V137.606H55.8985C53.8847 137.606 52.2461 139.244 52.2461 141.258V144.677C52.2461 146.69 53.8847 148.329 55.8985 148.329H106.349C108.363 148.329 110.001 146.69 110.001 144.677V141.258C110.001 139.244 108.363 137.606 106.349 137.606H102.594V121.354H145.565C148.311 121.354 150.545 119.12 150.545 116.374V98.3213H153.315C156.061 98.3213 158.296 96.0871 158.296 93.3408V51.6523C158.296 48.9061 156.061 46.6718 153.315 46.6718ZM24.2997 18.6836C24.2997 17.7682 25.0445 17.0234 25.9599 17.0234H77.9287C78.8442 17.0234 79.5889 17.7682 79.5889 18.6836V60.3721C79.5889 61.2875 78.8442 62.0323 77.9287 62.0323H25.9599C25.0445 62.0323 24.2997 61.2875 24.2997 60.3721V18.6836ZM24.2997 126.31V98.9797C24.2997 98.063 23.5566 97.3196 22.6396 97.3196C21.7225 97.3196 20.9794 98.063 20.9794 98.9797V118.034H16.6836C15.7682 118.034 15.0234 117.289 15.0234 116.374V31.2775C15.0234 30.3621 15.7682 29.6174 16.6836 29.6174H20.9794V60.3718C20.9794 63.118 23.2137 65.3523 25.9599 65.3523H49.5019V79.6409H25.9599C23.2137 79.6409 20.9794 81.8751 20.9794 84.6214V89.1722C20.9794 90.0889 21.7225 90.8323 22.6396 90.8323C23.5566 90.8323 24.2997 90.0889 24.2997 89.1722V84.6217C24.2997 83.7063 25.0445 82.9615 25.9599 82.9615H77.9284C78.8438 82.9615 79.5886 83.7063 79.5886 84.6217V126.31C79.5886 127.226 78.8438 127.97 77.9284 127.97H25.9599C25.0448 127.97 24.2997 127.226 24.2997 126.31ZM106.681 141.258V144.677C106.681 144.859 106.533 145.009 106.349 145.009H55.8985C55.7152 145.009 55.5664 144.859 55.5664 144.677V141.258C55.5664 141.075 55.7152 140.926 55.8985 140.926H106.349C106.533 140.926 106.681 141.075 106.681 141.258ZM99.274 137.606H62.9737V131.291H77.9284C80.6747 131.291 82.9089 129.056 82.9089 126.31V121.354H99.274V137.606ZM147.225 116.374C147.225 117.289 146.48 118.034 145.565 118.034H82.9089V84.6217C82.9089 81.8755 80.6747 79.6412 77.9284 79.6412H52.8225V74.1577H96.3664V93.3412C96.3664 96.0874 98.6007 98.3216 101.347 98.3216H147.225V116.374ZM154.975 93.3412C154.975 94.2566 154.231 95.0013 153.315 95.0013H101.347C100.431 95.0013 99.6864 94.2566 99.6864 93.3412V51.6523C99.6864 50.7369 100.431 49.9922 101.347 49.9922H153.315C154.231 49.9922 154.975 50.7369 154.975 51.6523V93.3412Z" fill="#2B6322"/>
<path d="M46.0527 157.577C45.1357 157.577 44.3926 156.834 44.3926 155.917C44.3926 154.91 43.5731 154.091 42.5664 154.091C41.6493 154.091 40.9062 153.347 40.9062 152.431C40.9062 151.514 41.6493 150.771 42.5664 150.771C43.5731 150.771 44.3926 149.951 44.3926 148.944C44.3926 148.028 45.1357 147.284 46.0527 147.284C46.9698 147.284 47.7129 148.028 47.7129 148.944C47.7129 149.951 48.5323 150.771 49.5391 150.771C50.4561 150.771 51.1992 151.514 51.1992 152.431C51.1992 153.347 50.4561 154.091 49.5391 154.091C48.5323 154.091 47.7129 154.91 47.7129 155.917C47.7129 156.834 46.9698 157.577 46.0527 157.577Z" fill="#56994C"/>
<path d="M125.287 20.1494C124.37 20.1494 123.627 19.406 123.627 18.4893C123.627 17.4822 122.808 16.6631 121.801 16.6631C120.884 16.6631 120.141 15.9197 120.141 15.0029C120.141 14.0862 120.884 13.3428 121.801 13.3428C122.808 13.3428 123.627 12.5237 123.627 11.5166C123.627 10.5999 124.37 9.85645 125.287 9.85645C126.204 9.85645 126.947 10.5999 126.947 11.5166C126.947 12.5237 127.767 13.3428 128.773 13.3428C129.691 13.3428 130.434 14.0862 130.434 15.0029C130.434 15.9197 129.691 16.6631 128.773 16.6631C127.767 16.6631 126.947 17.4822 126.947 18.4893C126.947 19.406 126.204 20.1494 125.287 20.1494Z" fill="#56994C"/>
<path d="M94.0059 20.5098C93.0888 20.5098 92.3457 19.7663 92.3457 18.8496C92.3457 17.8426 91.5263 17.0234 90.5195 17.0234C89.6025 17.0234 88.8594 16.28 88.8594 15.3633C88.8594 14.4465 89.6025 13.7031 90.5195 13.7031C91.5263 13.7031 92.3457 12.884 92.3457 11.877C92.3457 10.9602 93.0888 10.2168 94.0059 10.2168C94.9229 10.2168 95.666 10.9602 95.666 11.877C95.666 12.884 96.4855 13.7031 97.4922 13.7031C98.4093 13.7031 99.1523 14.4465 99.1523 15.3633C99.1523 16.28 98.4093 17.0234 97.4922 17.0234C96.4855 17.0234 95.666 17.8426 95.666 18.8496C95.666 19.7663 94.9229 20.5098 94.0059 20.5098Z" fill="#56994C"/>
<path d="M30.162 150.321C29.7374 150.321 29.312 150.159 28.9883 149.835L25.502 146.348C24.8535 145.7 24.8535 144.649 25.502 144.001L28.9883 140.514C29.6361 139.866 30.688 139.866 31.3358 140.514L34.8221 144.001C35.4705 144.649 35.4705 145.7 34.8221 146.348L31.3358 149.835C31.0117 150.159 30.5867 150.321 30.162 150.321ZM29.0235 145.174L30.162 146.313L31.3006 145.174L30.162 144.036L29.0235 145.174Z" fill="#56994C"/>
<path d="M153.365 137.372C152.94 137.372 152.515 137.21 152.191 136.886L148.705 133.4C148.057 132.752 148.057 131.7 148.705 131.052L152.191 127.566C152.839 126.918 153.891 126.918 154.539 127.566L158.025 131.052C158.674 131.701 158.674 132.752 158.025 133.4L154.539 136.886C154.215 137.21 153.79 137.372 153.365 137.372ZM152.227 132.226L153.365 133.365L154.504 132.226L153.365 131.087L152.227 132.226Z" fill="#56994C"/>
</g>
<defs>
<linearGradient id="paint0_linear_6665_2021" x1="35.4185" y1="136.473" x2="135.484" y2="36.4076" gradientUnits="userSpaceOnUse">
<stop stop-color="#DCF1D9" stop-opacity="0.3"/>
<stop offset="1" stop-color="#DCF1D9"/>
</linearGradient>
<clipPath id="clip0_6665_2021">
<rect width="170" height="170" fill="white"/>
</clipPath>
</defs>
</svg>
