<svg width="52" height="50" viewBox="0 0 52 50" fill="none" xmlns="http://www.w3.org/2000/svg">
<path d="M45.5969 0.13623H6.39687C3.31687 0.13623 0.796875 2.65623 0.796875 5.73623V38.2162C0.796875 41.2962 3.31687 43.8162 6.39687 43.8162H22.0769V44.9362C22.0769 45.3282 22.3009 45.6642 22.6369 45.8882C22.9729 46.1122 23.3649 46.1122 23.7009 45.9442L27.2289 44.2082L29.7489 49.2482C29.8609 49.5282 30.1409 49.6962 30.4209 49.8082C30.5329 49.8642 30.6449 49.8642 30.7569 49.8642C30.9249 49.8642 31.0929 49.8082 31.2609 49.7522L36.2449 47.2322C36.8049 46.9522 37.0289 46.2802 36.7489 45.7202L35.7969 43.8162H45.5969C48.6769 43.8162 51.1969 41.2962 51.1969 38.2162V5.73623C51.1969 2.65623 48.6769 0.13623 45.5969 0.13623ZM31.2049 47.2322L28.6849 42.2482C28.4609 41.8562 28.0689 41.6322 27.6769 41.6322C27.5089 41.6322 27.3409 41.6882 27.1729 41.7442L24.3169 43.1442V29.7042L35.0689 37.7682L32.1569 39.2242C31.5969 39.5042 31.3729 40.1762 31.6529 40.7362L34.1729 45.7762L31.2049 47.2322ZM48.9569 38.2162C48.9569 40.0642 47.4449 41.5762 45.5969 41.5762H34.6769L34.2289 40.6802L37.7569 38.9442C38.0929 38.7762 38.3169 38.4402 38.3729 38.0482C38.4289 37.6562 38.2609 37.2642 37.9249 37.0402L23.9249 26.5122C23.5889 26.2322 23.1409 26.2322 22.7489 26.4002C22.3569 26.5682 22.1329 26.9602 22.1329 27.4082V41.5762H6.39687C4.54888 41.5762 3.03688 40.0642 3.03688 38.2162V13.5762H48.9569V38.2162ZM48.9569 11.3362H3.03688V5.73623C3.03688 3.88823 4.54888 2.37623 6.39687 2.37623H45.5969C47.4449 2.37623 48.9569 3.88823 48.9569 5.73623V11.3362ZM8.63688 6.85623C8.63688 7.47223 8.13287 7.97623 7.51688 7.97623C6.90088 7.97623 6.39687 7.47223 6.39687 6.85623C6.39687 6.24023 6.90088 5.73623 7.51688 5.73623C8.13287 5.73623 8.63688 6.24023 8.63688 6.85623ZM14.2369 6.85623C14.2369 7.47223 13.7329 7.97623 13.1169 7.97623C12.5009 7.97623 11.9969 7.47223 11.9969 6.85623C11.9969 6.24023 12.5009 5.73623 13.1169 5.73623C13.7329 5.73623 14.2369 6.24023 14.2369 6.85623ZM19.8369 6.85623C19.8369 7.47223 19.3329 7.97623 18.7169 7.97623C18.1009 7.97623 17.5969 7.47223 17.5969 6.85623C17.5969 6.24023 18.1009 5.73623 18.7169 5.73623C19.3329 5.73623 19.8369 6.24023 19.8369 6.85623ZM18.7169 20.9122C18.4369 20.3522 18.6609 19.6802 19.2209 19.4002C19.7809 19.1202 20.4529 19.3442 20.7329 19.9042L21.7409 21.9202C22.0209 22.4802 21.7969 23.1522 21.2369 23.4322C21.0689 23.4882 20.9009 23.5442 20.7329 23.5442C20.3409 23.5442 19.9489 23.3202 19.7249 22.9282L18.7169 20.9122ZM29.8049 26.2882C29.5249 25.7282 29.7489 25.0562 30.3089 24.7762L32.3249 23.7682C32.8849 23.4882 33.5569 23.7122 33.8369 24.2722C34.1169 24.8322 33.8929 25.5042 33.3329 25.7842L31.3169 26.7922C31.1489 26.8482 30.9809 26.9042 30.8129 26.9042C30.4209 26.9602 30.0289 26.6802 29.8049 26.2882ZM18.3249 32.0562C18.6049 32.6162 18.3809 33.2882 17.8209 33.5682L15.8049 34.5762C15.6369 34.6322 15.4689 34.6882 15.3009 34.6882C14.9089 34.6882 14.5169 34.4642 14.2929 34.0722C14.0129 33.5122 14.2369 32.8402 14.7969 32.5602L16.8129 31.5522C17.3729 31.2722 18.0449 31.4962 18.3249 32.0562ZM25.3809 21.6402L26.1089 19.5122C26.2769 18.8962 26.9489 18.6162 27.5089 18.7842C28.0689 18.9522 28.4049 19.6242 28.2369 20.1842L27.5089 22.3122C27.3409 22.7602 26.8929 23.0962 26.4449 23.0962C26.3329 23.0962 26.2209 23.0962 26.1089 23.0402C25.5489 22.8722 25.2129 22.2562 25.3809 21.6402ZM13.7329 25.7282C13.9009 25.1122 14.5729 24.8322 15.1329 25.0002L17.2609 25.7282C17.8209 25.8962 18.1569 26.5682 17.9889 27.1282C17.8209 27.5762 17.3729 27.9122 16.9249 27.9122C16.8129 27.9122 16.7009 27.9122 16.5889 27.8562L14.4609 27.1282C13.8449 26.9602 13.5089 26.3442 13.7329 25.7282Z" fill="#2B83FF"/>
</svg>
