<svg width="38" height="52" viewBox="0 0 38 52" fill="none" xmlns="http://www.w3.org/2000/svg">
<path d="M34.1234 13.2878V4.1598C34.1234 2.3118 32.6114 0.799805 30.7634 0.799805H3.88344C2.03544 0.799805 0.523438 2.3118 0.523438 4.1598V39.9998C0.523438 41.8478 2.03544 43.3598 3.88344 43.3598H28.5234V44.4798C28.5234 44.7038 28.5794 44.8718 28.6914 45.0398L32.0514 50.6398C32.2754 50.9758 32.6114 51.1998 33.0034 51.1998C33.3954 51.1998 33.7314 50.9758 33.9554 50.6398L37.3154 45.0398C37.4274 44.8718 37.4834 44.6478 37.4834 44.4798V17.5998C37.4834 15.5278 36.0274 13.7358 34.1234 13.2878ZM28.5234 17.5998V41.1198H3.88344C3.26744 41.1198 2.76344 40.6158 2.76344 39.9998V4.1598C2.76344 3.5438 3.26744 3.0398 3.88344 3.0398H30.7634C31.3794 3.0398 31.8834 3.5438 31.8834 4.1598V13.2878C29.9794 13.7358 28.5234 15.5278 28.5234 17.5998ZM35.2434 44.1998L33.0034 47.9518L30.7634 44.1998V22.0798H35.2434V44.1998ZM35.2434 19.8398H30.7634V17.5998C30.7634 16.3678 31.7714 15.3598 33.0034 15.3598C34.2354 15.3598 35.2434 16.3678 35.2434 17.5998V19.8398ZM6.12344 7.5198C6.12344 6.9038 6.62744 6.3998 7.24344 6.3998H16.2034C16.8194 6.3998 17.3234 6.9038 17.3234 7.5198C17.3234 8.1358 16.8194 8.6398 16.2034 8.6398H7.24344C6.62744 8.6398 6.12344 8.1358 6.12344 7.5198ZM25.1634 36.6398C25.1634 37.2558 24.6594 37.7598 24.0434 37.7598H15.0834C14.4674 37.7598 13.9634 37.2558 13.9634 36.6398C13.9634 36.0238 14.4674 35.5198 15.0834 35.5198H24.0434C24.6594 35.5198 25.1634 36.0238 25.1634 36.6398ZM25.1634 13.1198C25.1634 13.7358 24.6594 14.2398 24.0434 14.2398H7.24344C6.62744 14.2398 6.12344 13.7358 6.12344 13.1198C6.12344 12.5038 6.62744 11.9998 7.24344 11.9998H24.0434C24.6594 11.9998 25.1634 12.5038 25.1634 13.1198ZM25.1634 18.7198C25.1634 19.3358 24.6594 19.8398 24.0434 19.8398H7.24344C6.62744 19.8398 6.12344 19.3358 6.12344 18.7198C6.12344 18.1038 6.62744 17.5998 7.24344 17.5998H24.0434C24.6594 17.5998 25.1634 18.1038 25.1634 18.7198Z" fill="#2B83FF"/>
</svg>
