<svg width="52" height="34" viewBox="0 0 52 34" fill="none" xmlns="http://www.w3.org/2000/svg">
<path d="M47.8369 17.0002H47.5009L44.9809 10.2242C44.4769 8.9362 43.1889 8.0402 41.7889 8.0402H33.2769V3.5602C33.2769 1.7122 31.7649 0.200195 29.9169 0.200195H4.15688C2.30888 0.200195 0.796875 1.7122 0.796875 3.5602V27.0802C0.796875 28.9282 2.30888 30.4402 4.15688 30.4402H6.56488C7.06888 32.3442 8.80488 33.8002 10.8769 33.8002C12.2209 33.8002 13.3969 33.1842 14.2369 32.2882C15.0769 33.2402 16.2529 33.8002 17.5969 33.8002C19.6689 33.8002 21.4049 32.3442 21.9089 30.4402H36.7489C37.2529 32.3442 38.9889 33.8002 41.0609 33.8002C43.1329 33.8002 44.8689 32.3442 45.3729 30.4402H47.8369C49.6849 30.4402 51.1969 28.9282 51.1969 27.0802V20.3602C51.1969 18.5122 49.6849 17.0002 47.8369 17.0002ZM10.8769 31.5602C9.64488 31.5602 8.63688 30.5522 8.63688 29.3202C8.63688 28.0882 9.64488 27.0802 10.8769 27.0802C12.1089 27.0802 13.1169 28.0882 13.1169 29.3202C13.1169 30.5522 12.1089 31.5602 10.8769 31.5602ZM17.5969 31.5602C16.3649 31.5602 15.3569 30.5522 15.3569 29.3202C15.3569 28.0882 16.3649 27.0802 17.5969 27.0802C18.8289 27.0802 19.8369 28.0882 19.8369 29.3202C19.8369 30.5522 18.8289 31.5602 17.5969 31.5602ZM31.0369 28.2002H21.9089C21.4049 26.2962 19.6689 24.8402 17.5969 24.8402C16.2529 24.8402 15.0769 25.4562 14.2369 26.3522C13.3969 25.4002 12.2209 24.8402 10.8769 24.8402C8.80488 24.8402 7.06888 26.2962 6.56488 28.2002H4.15688C3.54088 28.2002 3.03688 27.6962 3.03688 27.0802V22.6002H31.0369V28.2002ZM31.0369 20.3602H3.03688V3.5602C3.03688 2.9442 3.54088 2.4402 4.15688 2.4402H29.9169C30.5329 2.4402 31.0369 2.9442 31.0369 3.5602V20.3602ZM38.8769 10.2802H41.7889C42.2369 10.2802 42.6849 10.5602 42.8529 11.0082L45.0929 17.0002H38.8769V10.2802ZM41.1169 31.5602C39.8849 31.5602 38.8769 30.5522 38.8769 29.3202C38.8769 28.0882 39.8849 27.0802 41.1169 27.0802C42.3489 27.0802 43.3569 28.0882 43.3569 29.3202C43.3569 30.5522 42.3489 31.5602 41.1169 31.5602ZM48.9569 21.4802H46.7169C46.1009 21.4802 45.5969 21.9842 45.5969 22.6002C45.5969 23.2162 46.1009 23.7202 46.7169 23.7202H48.9569V27.0802C48.9569 27.6962 48.4529 28.2002 47.8369 28.2002H45.4289C44.9249 26.2962 43.1889 24.8402 41.1169 24.8402C39.0449 24.8402 37.3089 26.2962 36.8049 28.2002H33.2769V10.2802H36.6369V18.1202C36.6369 18.7362 37.1409 19.2402 37.7569 19.2402H46.7169H47.8369C48.4529 19.2402 48.9569 19.7442 48.9569 20.3602V21.4802Z" fill="#56994C"/>
</svg>
