<svg width="52" height="46" viewBox="0 0 52 46" fill="none" xmlns="http://www.w3.org/2000/svg">
<path d="M45.5969 0.600098H6.39687C3.31687 0.600098 0.796875 3.1201 0.796875 6.2001V34.2001C0.796875 37.2801 3.31687 39.8001 6.39687 39.8001H17.5969V43.1601H13.6769C13.0609 43.1601 12.5569 43.6641 12.5569 44.2801C12.5569 44.8961 13.0609 45.4001 13.6769 45.4001H38.3169C38.9329 45.4001 39.4369 44.8961 39.4369 44.2801C39.4369 43.6641 38.9329 43.1601 38.3169 43.1601H34.3969V39.8001H45.5969C48.6769 39.8001 51.1969 37.2801 51.1969 34.2001V6.2001C51.1969 3.1201 48.6769 0.600098 45.5969 0.600098ZM32.1569 43.1601H19.8369V39.8001H32.1569V43.1601ZM45.5969 37.5601H6.39687C4.54888 37.5601 3.03688 36.0481 3.03688 34.2001H48.9569C48.9569 36.0481 47.4449 37.5601 45.5969 37.5601ZM48.9569 31.9601H3.03688V6.2001C3.03688 4.3521 4.54888 2.8401 6.39687 2.8401H45.5969C47.4449 2.8401 48.9569 4.3521 48.9569 6.2001V31.9601ZM41.0049 20.1441C41.7889 19.0241 42.2369 17.6801 42.2369 16.2801C42.2369 12.5841 39.2129 9.56009 35.5169 9.56009C31.8209 9.56009 28.7969 12.5841 28.7969 16.2801C28.7969 19.9761 31.8209 23.0001 35.5169 23.0001C36.9729 23.0001 38.3169 22.5521 39.3809 21.7681L42.5729 24.9041C42.7969 25.1281 43.0769 25.2401 43.3569 25.2401C43.6369 25.2401 43.9169 25.1281 44.1409 24.9041C44.5889 24.4561 44.5889 23.7841 44.1409 23.3361L41.0049 20.1441ZM35.5169 20.7601C33.0529 20.7601 31.0369 18.7441 31.0369 16.2801C31.0369 13.8161 33.0529 11.8001 35.5169 11.8001C37.9809 11.8001 39.9969 13.8161 39.9969 16.2801C39.9969 18.7441 37.9809 20.7601 35.5169 20.7601ZM24.3169 10.6801C24.3169 11.2961 23.8129 11.8001 23.1969 11.8001H8.63688C8.02087 11.8001 7.51688 11.2961 7.51688 10.6801C7.51688 10.0641 8.02087 9.56009 8.63688 9.56009H23.1969C23.8129 9.56009 24.3169 10.0641 24.3169 10.6801ZM24.3169 17.4001C24.3169 18.0161 23.8129 18.5201 23.1969 18.5201H8.63688C8.02087 18.5201 7.51688 18.0161 7.51688 17.4001C7.51688 16.7841 8.02087 16.2801 8.63688 16.2801H23.1969C23.8129 16.2801 24.3169 16.7841 24.3169 17.4001ZM24.3169 24.1201C24.3169 24.7361 23.8129 25.2401 23.1969 25.2401H8.63688C8.02087 25.2401 7.51688 24.7361 7.51688 24.1201C7.51688 23.5041 8.02087 23.0001 8.63688 23.0001H23.1969C23.8129 23.0001 24.3169 23.5041 24.3169 24.1201Z" fill="#2B83FF"/>
</svg>
