<svg width="52" height="46" viewBox="0 0 52 46" fill="none" xmlns="http://www.w3.org/2000/svg">
<path d="M47.8369 13.4801H44.4209C41.6209 5.7521 34.2849 0.600098 25.9969 0.600098C17.7089 0.600098 10.3729 5.7521 7.57288 13.4801H4.15688C2.30888 13.4801 0.796875 14.9921 0.796875 16.8401V23.5601C0.796875 25.4081 2.30888 26.9201 4.15688 26.9201H8.35687C8.69287 26.9201 9.02888 26.7521 9.25288 26.4721C9.47688 26.1921 9.53288 25.8001 9.42087 25.4641C8.86088 23.7841 8.58087 21.9921 8.58087 20.2001C8.58087 18.4081 8.86088 16.6161 9.42087 14.9361C11.7729 7.71209 18.3809 2.8401 25.9969 2.8401C33.6129 2.8401 40.2209 7.71209 42.5169 14.9361C43.0769 16.6161 43.3569 18.4081 43.3569 20.2001C43.3569 21.9921 43.0769 23.7841 42.5169 25.4641C40.2209 32.6881 33.6129 37.5601 25.9969 37.5601H17.5969C15.4129 37.5601 13.6769 39.2961 13.6769 41.4801C13.6769 43.6641 15.4129 45.4001 17.5969 45.4001H23.1969C25.3809 45.4001 27.1169 43.6641 27.1169 41.4801V39.7441C34.9569 39.2961 41.7329 34.3121 44.4209 26.9201H47.8369C49.6849 26.9201 51.1969 25.4081 51.1969 23.5601V16.8401C51.1969 14.9921 49.6849 13.4801 47.8369 13.4801ZM6.90087 24.6801H4.15688C3.54087 24.6801 3.03688 24.1761 3.03688 23.5601V16.8401C3.03688 16.2241 3.54087 15.7201 4.15688 15.7201H6.90087C6.56487 17.1761 6.39687 18.6881 6.39687 20.2001C6.39687 21.7121 6.56487 23.2241 6.90087 24.6801ZM24.8769 41.4801C24.8769 42.4321 24.1489 43.1601 23.1969 43.1601H17.5969C16.6449 43.1601 15.9169 42.4321 15.9169 41.4801C15.9169 40.5281 16.6449 39.8001 17.5969 39.8001H24.8769V41.4801ZM48.9569 23.5601C48.9569 24.1761 48.4529 24.6801 47.8369 24.6801H45.0929C45.4289 23.2241 45.5969 21.7121 45.5969 20.2001C45.5969 18.6881 45.4289 17.1761 45.0929 15.7201H47.8369C48.4529 15.7201 48.9569 16.2241 48.9569 16.8401V23.5601ZM39.9969 20.2001C39.9969 12.4721 33.7249 6.2001 25.9969 6.2001C18.2689 6.2001 11.9969 12.4721 11.9969 20.2001C11.9969 23.5601 13.1729 26.7521 15.3569 29.2721L12.3329 32.2961C11.9969 32.6321 11.9409 33.0801 12.1089 33.5281C12.2769 33.9201 12.6689 34.2001 13.1169 34.2001H25.9969C33.7249 34.2001 39.9969 27.9281 39.9969 20.2001ZM17.7089 28.4881C15.4689 26.2481 14.2369 23.3361 14.2369 20.2001C14.2369 13.7041 19.5009 8.44009 25.9969 8.44009C32.4929 8.44009 37.7569 13.7041 37.7569 20.2001C37.7569 26.6961 32.4929 31.9601 25.9969 31.9601H15.8049L17.6529 30.1121C18.1009 29.6641 18.1009 28.9361 17.7089 28.4881ZM24.8769 20.2001C24.8769 19.5841 25.3809 19.0801 25.9969 19.0801C26.6129 19.0801 27.1169 19.5841 27.1169 20.2001C27.1169 20.8161 26.6129 21.3201 25.9969 21.3201C25.3809 21.3201 24.8769 20.8161 24.8769 20.2001ZM30.4769 20.2001C30.4769 19.5841 30.9809 19.0801 31.5969 19.0801C32.2129 19.0801 32.7169 19.5841 32.7169 20.2001C32.7169 20.8161 32.2129 21.3201 31.5969 21.3201C30.9809 21.3201 30.4769 20.8161 30.4769 20.2001ZM19.2769 20.2001C19.2769 19.5841 19.7809 19.0801 20.3969 19.0801C21.0129 19.0801 21.5169 19.5841 21.5169 20.2001C21.5169 20.8161 21.0129 21.3201 20.3969 21.3201C19.7809 21.3201 19.2769 20.8161 19.2769 20.2001Z" fill="#2B83FF"/>
</svg>
