<svg width="40" height="52" viewBox="0 0 40 52" fill="none" xmlns="http://www.w3.org/2000/svg">
<path d="M32.8784 0.799805H7.11843C3.42244 0.799805 0.398438 3.8238 0.398438 7.5198V13.1198C0.398438 16.8158 3.42244 19.8398 7.11843 19.8398H8.79843V24.3198C8.79843 24.7118 9.02243 25.1038 9.41443 25.3278C9.58243 25.3838 9.75043 25.4398 9.91843 25.4398C10.1424 25.4398 10.3664 25.3838 10.5904 25.2158L18.0944 19.8398H32.8784C36.5744 19.8398 39.5984 16.8158 39.5984 13.1198V7.5198C39.5984 3.8238 36.5744 0.799805 32.8784 0.799805ZM37.3584 13.1198C37.3584 15.5838 35.3424 17.5998 32.8784 17.5998H17.7584C17.5344 17.5998 17.3104 17.6558 17.0864 17.8238L11.0384 22.1358V18.7198C11.0384 18.1038 10.5344 17.5998 9.91843 17.5998H7.11843C4.65444 17.5998 2.63844 15.5838 2.63844 13.1198V7.5198C2.63844 5.0558 4.65444 3.0398 7.11843 3.0398H32.8784C35.3424 3.0398 37.3584 5.0558 37.3584 7.5198V13.1198ZM33.9984 13.1198C33.9984 13.7358 33.4944 14.2398 32.8784 14.2398H7.11843C6.50243 14.2398 5.99844 13.7358 5.99844 13.1198C5.99844 12.5038 6.50243 11.9998 7.11843 11.9998H32.8784C33.4944 11.9998 33.9984 12.5038 33.9984 13.1198ZM33.9984 7.5198C33.9984 8.1358 33.4944 8.6398 32.8784 8.6398H7.11843C6.50243 8.6398 5.99844 8.1358 5.99844 7.5198C5.99844 6.9038 6.50243 6.3998 7.11843 6.3998H32.8784C33.4944 6.3998 33.9984 6.9038 33.9984 7.5198ZM12.7184 37.5358C13.7264 36.6398 14.3984 35.2958 14.3984 33.8398C14.3984 31.0398 12.1584 28.7998 9.35843 28.7998C6.55843 28.7998 4.31844 31.0398 4.31844 33.8398C4.31844 35.2958 4.93444 36.6398 5.99844 37.5358C3.98244 38.7118 2.63844 40.8398 2.63844 43.3598V47.8398C2.63844 49.6878 4.15044 51.1998 5.99844 51.1998H12.7184C14.5664 51.1998 16.0784 49.6878 16.0784 47.8398V43.3598C16.0784 40.8958 14.7344 38.7118 12.7184 37.5358ZM6.55843 33.8398C6.55843 32.2718 7.79043 31.0398 9.35843 31.0398C10.9264 31.0398 12.1584 32.2718 12.1584 33.8398C12.1584 35.4078 10.9264 36.6398 9.35843 36.6398C7.79043 36.6398 6.55843 35.4078 6.55843 33.8398ZM13.8384 47.8398C13.8384 48.4558 13.3344 48.9598 12.7184 48.9598H5.99844C5.38244 48.9598 4.87844 48.4558 4.87844 47.8398V43.3598C4.87844 40.8958 6.89443 38.8798 9.35843 38.8798C11.8224 38.8798 13.8384 40.8958 13.8384 43.3598V47.8398ZM33.9984 37.5358C35.0064 36.6398 35.6784 35.2958 35.6784 33.8398C35.6784 31.0398 33.4384 28.7998 30.6384 28.7998C27.8384 28.7998 25.5984 31.0398 25.5984 33.8398C25.5984 35.2958 26.2144 36.6398 27.2784 37.5358C25.2624 38.7118 23.9184 40.8398 23.9184 43.3598V47.8398C23.9184 49.6878 25.4304 51.1998 27.2784 51.1998H33.9984C35.8464 51.1998 37.3584 49.6878 37.3584 47.8398V43.3598C37.3584 40.8958 36.0144 38.7118 33.9984 37.5358ZM27.8384 33.8398C27.8384 32.2718 29.0704 31.0398 30.6384 31.0398C32.2064 31.0398 33.4384 32.2718 33.4384 33.8398C33.4384 35.4078 32.2064 36.6398 30.6384 36.6398C29.0704 36.6398 27.8384 35.4078 27.8384 33.8398ZM35.1184 47.8398C35.1184 48.4558 34.6144 48.9598 33.9984 48.9598H27.2784C26.6624 48.9598 26.1584 48.4558 26.1584 47.8398V43.3598C26.1584 40.8958 28.1744 38.8798 30.6384 38.8798C33.1024 38.8798 35.1184 40.8958 35.1184 43.3598V47.8398Z" fill="#56994C"/>
</svg>
